<svg enable-background="new 0 0 1920 296.7" viewBox="0 0 1920 296.7" xmlns="http://www.w3.org/2000/svg" xmlns:xlink="http://www.w3.org/1999/xlink"><linearGradient id="a" gradientUnits="userSpaceOnUse" x1="113.5965" x2="1787.1187" y1="-566.6776" y2="818.8564"><stop offset="0" stop-color="#32c1e4"/><stop offset="1" stop-color="#d6e3e7"/></linearGradient><g clip-rule="evenodd" fill-rule="evenodd"><path d="m1263.5 88.5c-553.7 62.6-440.5-129.3-758.8 9.5-212.2 92.6-380.6 84-504.3-25.9l-.2-.2-.2-.1v224.9l1919.2-.4v-3.7c-70.8-177.4-289.3-245.4-655.7-204.1z" fill="#fff"/><path d="m1262.7 48.1c-548.3 59.1-452.4-141.9-757.8 10-203.6 101.2-371.6 92.2-503.9-27l-1-.9v41.6c123.7 110 291.6 118.7 503.9 26.1 318.3-138.8 205.1 53.1 758.8-9.4 369.2-41.7 588.3 27.7 657.3 208.1v-66.1c-72.7-161-291.8-221.8-657.3-182.4z" fill="url(#a)"/></g></svg>