<svg viewBox="0 0 660 815" xmlns="http://www.w3.org/2000/svg" xmlns:xlink="http://www.w3.org/1999/xlink"><linearGradient id="a" gradientUnits="userSpaceOnUse" x1="341.8" x2="232.8" y1="608.5" y2="608.5"><stop offset="0" stop-color="#fff"/><stop offset=".1" stop-color="#f2f3f7"/><stop offset=".29" stop-color="#d1d2e3"/><stop offset=".54" stop-color="#9b9dc1"/><stop offset=".85" stop-color="#515594"/><stop offset="1" stop-color="#292e7b"/></linearGradient><path d="m23.06 153-5.67 3.27 4.33 7.49v21.53a10.12 10.12 0 0 0 4.57 7.92l18.65 10.79 4.32 7.49 5.67-3.27a3.22 3.22 0 0 0 1.34-3v-29.28a10.11 10.11 0 0 0 -4.58-7.94l-25.4-14.66a3.2 3.2 0 0 0 -3.23-.34z" fill="#fff"/><path d="m20.63 196.52 25.37 14.67c2.52 1.46 4.57.27 4.57-2.64v-29.33a10.13 10.13 0 0 0 -4.57-7.93l-25.4-14.66c-2.53-1.46-4.58-.28-4.58 2.64v29.33a10.1 10.1 0 0 0 4.61 7.92z" fill="#59c3ff"/><path d="m37.87 183.65 1.52-1.45-1.53-2.65-2 .59a15.78 15.78 0 0 0 -2.82-3l-.36-3.09-2.16-1.25-.36 2.69a5.26 5.26 0 0 0 -2.82-.29l-2-2.91-1.53.88 1.51 3.2a5.3 5.3 0 0 0 -1.16 2.6l-2.51-1v2.5l2.51 1.85a15.66 15.66 0 0 0 1.16 3.94l-1.51 1.46 1.53 2.64 2-.58a15.78 15.78 0 0 0 2.83 3l.36 3.1 2.16 1.24.36-2.68a5.15 5.15 0 0 0 2.82.28l2 2.92 1.53-.88-1.52-3.21a5.18 5.18 0 0 0 1.12-2.64l2.51 1v-2.49l-2.51-1.83a15.52 15.52 0 0 0 -1.13-3.94zm-3.39 3.51a1.65 1.65 0 0 1 -2.44 1.4 6.2 6.2 0 0 1 -3.36-5.83 1.65 1.65 0 0 1 2.43-1.41 6.21 6.21 0 0 1 3.37 5.84zm10.52-7.11v-1.25l-1.25-.93a8.17 8.17 0 0 0 -.58-2l.75-.72-.76-1.33-1 .3a8.42 8.42 0 0 0 -1.41-1.5l-.18-1.54-1.08-.63-.18 1.35a2.63 2.63 0 0 0 -1.41-.15l-1-1.45-.77.44.76 1.6a2.7 2.7 0 0 0 -.58 1.3l-1.25-.52v1.25l1.25.92a7.92 7.92 0 0 0 .58 2l-.76.73.77 1.32 1-.29a8 8 0 0 0 1.41 1.49l.18 1.55 1.08.63.18-1.35a2.52 2.52 0 0 0 1.41.14l1 1.46.76-.44-.75-1.6a2.7 2.7 0 0 0 .58-1.3zm-3.56-2.26a.79.79 0 0 1 -1.06.62 3 3 0 0 1 -1.79-3.11.79.79 0 0 1 1.06-.61 3 3 0 0 1 1.83 3.1z" fill="#fff"/><path d="m355.53 730.82-136 78.5c-9 5.18-23.49 5.18-32.45 0l-136-78.5c-9-5.18-9-13.57 0-18.74l136-78.51c9-5.17 23.49-5.17 32.45 0l136 78.51c8.97 5.17 8.97 13.56 0 18.74z" fill="#346d7a" opacity=".43"/><g fill="#fff"><path d="m223 461.12a1 1 0 0 1 -1-.82c-3.18-49.17-59.9-72.84-114.75-95.73-48.39-20.19-94.08-39.25-104.91-74.43-7.34-23.88 2.54-52.66 30.23-88a1.09 1.09 0 0 1 1.4-.23.8.8 0 0 1 .26 1.22c-27.33 34.87-37.13 63.2-29.94 86.56 10.59 34.39 55.87 53.31 103.81 73.31 55.38 23.09 112.65 47 115.9 97.2a.92.92 0 0 1 -.94.92z"/><path d="m220.65 461.12a1.54 1.54 0 0 1 -.56-.1c-.59-.23-.81-.76-.5-1.19 25.34-34.92-6.35-82.18-39.91-132.21-44-65.54-89.42-133.33-23.44-188.17a1.51 1.51 0 0 1 1.69-.08.73.73 0 0 1 .11 1.24c-64.92 54-19.82 121.21 23.79 186.24 33.84 50.44 65.79 98.09 39.88 133.81a1.31 1.31 0 0 1 -1.06.46z"/><path d="m229.81 461.12a.86.86 0 0 1 -.56-.2.88.88 0 0 1 -.12-1.23c25.13-30.39 19.12-64.91 12.76-101.46-7.84-45-16.73-96.08 30.74-149.87a.88.88 0 0 1 1.24-.08.9.9 0 0 1 .08 1.25c-46.91 53.15-38.1 103.75-30.33 148.4 6.44 37 12.52 71.87-13.13 102.88a.87.87 0 0 1 -.68.31z"/><path d="m586.85 706.85c-54 0-120.51-56.43-181.1-107.82-61.16-51.87-118.93-100.85-153.75-84.4a.88.88 0 0 1 -.76-1.59c35.85-16.93 94 32.4 155.65 84.65 81.72 69.31 174.35 147.86 231.02 83.31a.9.9 0 0 1 1.25-.08.88.88 0 0 1 .08 1.24c-15.24 17.42-33.02 24.69-52.39 24.69z"/><path d="m435.37 531.91c-27.44 0-54-11-80.14-21.8-35.89-14.85-69.78-28.87-103.23-13.06a.88.88 0 0 1 -.76-1.59c34.16-16.14 68.41-2 104.66 13 52 21.51 105.75 43.75 164.43-23a.88.88 0 0 1 1.32 1.16c-29.92 34.05-58.54 45.29-86.28 45.29z"/><path d="m251.62 479.55a.86.86 0 0 1 -.79-.5.88.88 0 0 1 .41-1.17c27.11-12.81 57.95-13.59 90.6-14.43 67-1.7 136.19-3.47 178.33-112a.87.87 0 0 1 1.13-.5.88.88 0 0 1 .51 1.14c-42.57 109.58-112.4 111.36-179.92 113.08-32.47.83-63.13 1.61-89.89 14.26a1 1 0 0 1 -.38.12z"/><path d="m64.48 342.43a3.51 3.51 0 1 1 -3.51-3.5 3.51 3.51 0 0 1 3.51 3.5z"/><path d="m139.75 262.51a3.5 3.5 0 1 1 -3.5-3.5 3.5 3.5 0 0 1 3.5 3.5z"/><path d="m162.56 137.28a3.5 3.5 0 1 1 -3.5-3.5 3.49 3.49 0 0 1 3.5 3.5z"/><path d="m153.88 296.1a3.51 3.51 0 1 1 -3.5-3.5 3.51 3.51 0 0 1 3.5 3.5z"/><path d="m266.89 221.19a3.5 3.5 0 1 1 -3.5-3.5 3.5 3.5 0 0 1 3.5 3.5z"/><path d="m276.79 208.94a3.51 3.51 0 1 1 -3.51-3.5 3.51 3.51 0 0 1 3.51 3.5z"/><path d="m249.65 251.56a3.5 3.5 0 1 1 -3.5-3.5 3.5 3.5 0 0 1 3.5 3.5z"/><path d="m250.45 384.68a3.51 3.51 0 1 1 -3.51-3.5 3.5 3.5 0 0 1 3.51 3.5z"/><path d="m524.49 351.81a3.5 3.5 0 1 1 -3.5-3.5 3.5 3.5 0 0 1 3.5 3.5z"/><path d="m524.49 486a3.5 3.5 0 1 1 -3.5-3.5 3.5 3.5 0 0 1 3.5 3.5z"/><path d="m438.48 530.93a3.5 3.5 0 1 1 -3.5-3.5 3.5 3.5 0 0 1 3.5 3.5z"/><path d="m393.31 584.51a3.51 3.51 0 1 1 -3.5-3.5 3.5 3.5 0 0 1 3.5 3.5z"/><path d="m418.44 605.66a3.51 3.51 0 1 1 -3.51-3.5 3.5 3.5 0 0 1 3.51 3.5z"/><circle cx="440.06" cy="626.81" r="3.5"/><path d="m549 697a3.51 3.51 0 1 1 -3.5-3.5 3.5 3.5 0 0 1 3.5 3.5z"/><path d="m302.27 490.51a3.51 3.51 0 1 1 -3.51-3.5 3.51 3.51 0 0 1 3.51 3.5z"/><path d="m642.08 681.62a3.51 3.51 0 1 1 -3.51-3.5 3.51 3.51 0 0 1 3.51 3.5z"/><circle cx="493.61" cy="403.69" r="3.5"/><path d="m374.7 463.36a3.5 3.5 0 1 1 -3.5-3.5 3.5 3.5 0 0 1 3.5 3.5z"/><path d="m336.68 464.53a3.5 3.5 0 1 1 -3.5-3.5 3.51 3.51 0 0 1 3.5 3.5z"/><path d="m192.52 378.48a3.5 3.5 0 1 1 -3.52-3.48 3.5 3.5 0 0 1 3.52 3.48z"/><path d="m19.19 311.18a3.5 3.5 0 1 1 -3.5-3.5 3.5 3.5 0 0 1 3.5 3.5z"/><path d="m12.19 243.81a3.5 3.5 0 1 1 -3.5-3.5 3.5 3.5 0 0 1 3.5 3.5z"/><path d="m36.16 205.57a3.5 3.5 0 1 1 -3.5-3.5 3.5 3.5 0 0 1 3.5 3.5z"/><path d="m378.42 639.68-136 78.51c-9 5.17-23.5 5.17-32.46 0l-135.96-78.51c-9-5.17-9-13.56 0-18.74l136-78.5c9-5.18 23.49-5.18 32.46 0l136 78.5c8.92 5.18 8.92 13.57-.04 18.74z"/><path d="m272.13 369.62 105.12 61.28a9.2 9.2 0 0 1 4.16 7.2v85.5a3 3 0 0 1 -1.17 2.66l-6.9 4-101.22-65.53a9.22 9.22 0 0 1 -4.16-7.21l-5.61-84.24 6.83-3.95a3 3 0 0 1 2.95.29z"/></g><path d="m265.26 373.59 105.12 61.27a9.19 9.19 0 0 1 4.16 7.21v85.49c0 2.66-1.86 3.74-4.16 2.41l-105.12-61.27a9.21 9.21 0 0 1 -4.16-7.21v-85.49c0-2.66 1.9-3.74 4.16-2.41z" fill="#eaeaea"/><path d="m244.68 623.45h126.06l-39.78-29.91-93.03.18-13.29 15.3z" fill="url(#a)" opacity=".3"/><path d="m335.36 434.41-21.53-26.1-.01-.01-21.96 2.69-.13 8.93 21.96-2.69h.01l21.53 26.11z" fill="#115a80"/><path d="m337.13 481.78-24.42 2.99-23.96-29.03.47-32.02 24.42-2.99 23.96 29.03z" fill="#115a80"/><path d="m312.65 488.49-26.73-32.4.52-35.75h.12l27.14-3.34 26.74 32.4-.53 35.74h-.12zm27.16-29.49.13-9.54-26.25-31.82-26.77 3.28-.51 35.1 26.25 31.82 26.77-3.28z" fill="#115a80"/><path d="m335.14 450.06-.42 28.79-.04.01-3.61.44-3.02.37-7.3.89-7.99.98-7.89-9.55-7.15-8.67-2.97-3.61-3.53-4.27.42-28.8.59-.07 2.81-.34 4-.49 14.56-1.78 14.31 17.34 3.89 4.72 2.79 3.38z" fill="#fff"/><path d="m327.3 449.51a5.93 5.93 0 0 0 -2.1-2 2.42 2.42 0 0 0 -2.16-.25c-.63.27-1 .93-1 2l-.24 16.54a5.37 5.37 0 0 0 .87 3 5.9 5.9 0 0 0 2.1 2 2.51 2.51 0 0 0 2.17.3c.62-.26 1-.93 1-2l.24-16.55a5.39 5.39 0 0 0 -.88-3.04z" fill="#115a80"/><path d="m317.62 454.19-.13 9.42a2 2 0 0 1 -.84 1.8 1.92 1.92 0 0 1 -2-.13 5 5 0 0 1 -1.95-2 5.09 5.09 0 0 1 -.77-2.66v-1.58l-8.28-4.46v1.58a1.75 1.75 0 0 1 -2.8 1.68 5.71 5.71 0 0 1 -2.71-4.65l.14-9.59a2.09 2.09 0 0 1 .9-1.54l6.74-3.92a2.14 2.14 0 0 1 2.11.11l.09.05a5.56 5.56 0 0 1 2.1 2.17l6.53 11.25a6 6 0 0 1 .87 2.47z" fill="#115a80"/><path d="m310.81 453.48-5.81-3.13a2.52 2.52 0 0 1 -.92-.94 2.66 2.66 0 0 1 -.28-.65c-.2-.68-.07-1.27.32-1.49l2.92-1.74a1 1 0 0 1 .95.06 2.55 2.55 0 0 1 .92 1l2.83 4.86a2.16 2.16 0 0 1 .27 1.81c-.18.4-.66.51-1.2.22z" fill="#fff"/><path d="m213.87 513.11c-.75-.92-2.14-.69-3.31-.5s-2.07.31-2.5 1.41c-.58 1.48-1.37 5.18-1.82 6.89.39 2.24 6.64 2.21 7.56.31 1.38-2.84 1.12-6.83.07-8.11z" fill="#ffadae"/><path d="m214.63 529.3a21.17 21.17 0 0 1 -.06-10.31 1.38 1.38 0 0 0 -2.67-.66.77.77 0 0 0 0 .15 23.17 23.17 0 0 0 1.21 11.31.81.81 0 0 0 1 .48.82.82 0 0 0 .52-.97z" fill="#ffadae"/><path d="m212.36 530.41a19.84 19.84 0 0 1 -.72-6.11 16.28 16.28 0 0 1 1.09-5.85 1.38 1.38 0 1 0 -2.52-1.12v.12a18.52 18.52 0 0 0 -.71 6.9 21.59 21.59 0 0 0 1.37 6.61.82.82 0 0 0 1 .46.8.8 0 0 0 .48-1z" fill="#ffadae"/><path d="m209.74 529.34a13.22 13.22 0 0 1 1.7-9.5 1.38 1.38 0 1 0 -2.26-1.57l-.09.14a15.34 15.34 0 0 0 -.92 11.31.82.82 0 0 0 1 .56.8.8 0 0 0 .58-.92z" fill="#ffadae"/><path d="m208.71 527.92a3.83 3.83 0 0 1 -.93-2.78 11.41 11.41 0 0 1 1-3.15 1.38 1.38 0 1 0 -2.54-1.08 1.72 1.72 0 0 0 -.07.21 13.64 13.64 0 0 0 -.57 4 5.8 5.8 0 0 0 1.91 3.85.83.83 0 0 0 1.15 0 .82.82 0 0 0 .05-1.05z" fill="#ffadae"/><path d="m217.31 523.48a15.06 15.06 0 0 0 -.11-5.09 8.6 8.6 0 0 0 -2.77-5l-.14-.12a2 2 0 0 0 -2.56 3 2.39 2.39 0 0 0 .44.29 5.13 5.13 0 0 1 2.22 2.68 12.65 12.65 0 0 1 1 4.16 1 1 0 0 0 2 .09z" fill="#ffadae"/><path d="m210.76 515.62h-.11a3.64 3.64 0 0 1 -3.53-3.75l.14-4.35a3.64 3.64 0 0 1 3.63-3.53h.11a3.63 3.63 0 0 1 3.52 3.75l-.13 4.35a3.64 3.64 0 0 1 -3.63 3.53z" fill="#fff"/><path d="m211.59 490.38a5 5 0 0 1 -2-.42 5.1 5.1 0 0 1 -2.65-6.7l13.21-30.43a5.09 5.09 0 0 1 9.35 4.05l-13.21 30.43a5.07 5.07 0 0 1 -4.7 3.07z" fill="#40ccff"/><path d="m210.87 513.48h-.16a5.09 5.09 0 0 1 -4.93-5.25l.72-23.09a5.09 5.09 0 1 1 10.18.31l-.72 23.1a5.09 5.09 0 0 1 -5.09 4.93z" fill="#40ccff"/><path d="m241.44 618.83a22 22 0 0 0 -.11 2.38 3.39 3.39 0 0 0 3.35 2.24 22.69 22.69 0 0 0 5.57-.7v-3.92z" fill="#171a1f"/><path d="m261.07 530.56-1.74 34.2a6.56 6.56 0 0 1 -13.1 0l-1.75-34.2a8.31 8.31 0 0 1 16.59-.85 6 6 0 0 1 0 .85z" fill="#171a1f"/><path d="m242.83 611.84a20.74 20.74 0 0 0 -1.5 8.07 3.39 3.39 0 0 0 3.35 2.24c5.68 0 7.53-1.94 16.09-2.56 2.3-.16 5.4-2 7.18-4a3.61 3.61 0 0 0 .85-3 1.42 1.42 0 0 0 -1.49-1.19c-5 .28-9.7-.09-17-.09z" fill="#171a1f"/><path d="m246.73 615.9a3.55 3.55 0 0 1 -.46 0 3.63 3.63 0 0 1 -3.15-4.07l.82-6.47a3.64 3.64 0 1 1 7.22.92l-.82 6.47a3.64 3.64 0 0 1 -3.61 3.15z" fill="#fff"/><path d="m242.74 605.18 3.54-41.24a6.56 6.56 0 1 1 13.07 1.12c0 .17 0 .36-.07.53l-6.92 40.81a4.85 4.85 0 0 1 -9.62-1.22z" fill="#171a1f"/><path d="m222 605.38a21.78 21.78 0 0 0 .07 4.48c.33 1.71 4.56 2.33 6.7.6a11.7 11.7 0 0 0 1.63-3.1v-2z" fill="#171a1f"/><path d="m222.23 601.2a28.68 28.68 0 0 0 -.25 7.51c.33 1.71 4.56 2.33 6.7.6 1.34-1.47 1.59-4.28 3.67-6.14 2.29-2 6.53-1.37 7.31-5.22.68-3.36-.57-4.93-3.35-4l-10.24 4.44z" fill="#171a1f"/><path d="m238.63 520.22-1.14 34.23a6.56 6.56 0 0 1 -13.1.23l-2.39-34.18a8.31 8.31 0 0 1 16.58-1.13 8 8 0 0 1 .05.85z" fill="#171a1f"/><path d="m225.9 604.18h-.41a3.65 3.65 0 0 1 -3.22-4l.66-5.95a3.64 3.64 0 1 1 7.23.8l-.65 6a3.64 3.64 0 0 1 -3.61 3.15z" fill="#fff"/><path d="m221.6 595.15 2.82-41.3a6.56 6.56 0 1 1 13.09.89c0 .18 0 .37-.06.54l-6.2 40.92a4.86 4.86 0 0 1 -9.65-1.05z" fill="#171a1f"/><path d="m259.89 510-24.89-14.38c-1.36-.79-3.1.79-10.46 5.05-4.08 2.36-3 7.85-3 13.33 0 2.43-.11 8 4.57 10.89 3.74 2.33 10.51 6.06 22.79 13.14 4.53 2.62 12.24-5.66 12.25-12.95 0-11.9.31-13.92-.58-14.67a5.69 5.69 0 0 0 -.68-.41z" fill="#171a1f"/><path d="m262.56 473.78c0-3.65-2.88-6.48-6.56-8.6l-26.23-15.18c-5.15-2.94-11 7.71-10.4 17.07 1 14.69 1.34 27.55 1.27 38.13.43 4.5 18.89 15.23 26.38 15.23s15-4.49 14.89-9.24c-.53-20.09.65-16.25.65-37.41z" fill="#fff"/><path d="m262.56 473.78c0-3.65-2.88-6.48-6.56-8.6l-26.23-15.18c-5.15-2.94-12.46 7.71-11.86 17.07 1 14.69 2.37 28.34 1.27 45.41 0 6.06 20.35 15.23 27.84 15.23s16.45-4.49 16.34-9.24c-.52-20.09-.8-23.53-.8-44.69z" fill="#40ccff"/><path d="m302.47 469.68a15.28 15.28 0 0 0 -1.58 4.85 8.61 8.61 0 0 0 1 5.66l.09.15a2 2 0 1 0 3.41-2 2.22 2.22 0 0 0 -.32-.42 5.19 5.19 0 0 1 -1.21-3.26 12.66 12.66 0 0 1 .47-4.24 1 1 0 0 0 -1.82-.74z" fill="#ffadae"/><path d="m308.87 465.69a21.08 21.08 0 0 1 -5.2 8.91 1.38 1.38 0 0 0 2 1.93l.1-.12a23.17 23.17 0 0 0 4.71-10.36.81.81 0 0 0 -.65-.94.82.82 0 0 0 -.96.58z" fill="#ffadae"/><path d="m308.77 469.52a6.63 6.63 0 0 1 1.14 1.55c.12.34 0 .59-.37 1.1a16.89 16.89 0 0 1 -3.11 2.65 1.38 1.38 0 1 0 1.57 2.26l.16-.12a18.72 18.72 0 0 0 3.2-3.59 3.17 3.17 0 0 0 .27-3.1 7.28 7.28 0 0 0 -1.69-1.86.81.81 0 0 0 -1.19 1.09z" fill="#ffadae"/><path d="m310.51 472c.45.23.75.56.71.74a1.29 1.29 0 0 1 -.42.82 6.89 6.89 0 0 1 -2.6 1.66 1.38 1.38 0 0 0 1 2.58 1.51 1.51 0 0 0 .22-.11 9.18 9.18 0 0 0 3.17-2.87 3 3 0 0 0 .46-2.63 2.85 2.85 0 0 0 -1.92-1.69.81.81 0 0 0 -1 .48.8.8 0 0 0 .39 1z" fill="#ffadae"/><path d="m311.6 474c.26.24.43.6.29.44s-.09 0-.37.19a20.44 20.44 0 0 1 -1.88 1.25 1.38 1.38 0 1 0 1.43 2.36 1.06 1.06 0 0 0 .26-.2 19 19 0 0 0 1.79-1.94 2.46 2.46 0 0 0 .65-1.93 2.29 2.29 0 0 0 -1.17-1.44.81.81 0 0 0 -1 1.24z" fill="#ffadae"/><path d="m301.37 479.3c0 1.18 2.72 3.15 3.87 2.89a11.59 11.59 0 0 0 5.85-3.68c1.11-2-2.68-6.39-4.58-5.49-2.86 1.35-5.16 4.62-5.14 6.28z" fill="#ffadae"/><path d="m297.56 488.28a3.6 3.6 0 0 1 -3-1.56 3.64 3.64 0 0 1 .9-5.07l3.57-2.49a3.64 3.64 0 0 1 4.16 6l-3.57 2.48a3.56 3.56 0 0 1 -2.06.64z" fill="#fff"/><path d="m279.22 502.51a5.09 5.09 0 0 1 -3.88-1.78l-21.54-25.22a5.1 5.1 0 0 1 7.75-6.62l21.54 25.22a5.09 5.09 0 0 1 -3.87 8.4z" fill="#40ccff"/><path d="m279.22 502.51a5.09 5.09 0 0 1 -2.91-9.27l18.95-13.24a5.1 5.1 0 1 1 5.83 8.36l-19 13.21a5.05 5.05 0 0 1 -2.87.94z" fill="#40ccff"/><path d="m254.41 444.69h1.21a1.09 1.09 0 0 0 1.05-1.39l-2.05-3.93z" fill="#ff9193"/><path d="m247.72 451.57h4.76a2.39 2.39 0 0 0 2.39-2.39v-11.81a8.3 8.3 0 0 0 -1.2-4.32l-1.08-1.8a10.47 10.47 0 0 0 -9-5.08h-2a10.48 10.48 0 0 0 -9.49 14.83 18.21 18.21 0 0 0 12.24 10.2 14.28 14.28 0 0 0 3.38.37z" fill="#ffadae"/><path d="m254.06 439a.55.55 0 0 1 -.42-.2.54.54 0 0 1 .07-.76 2.24 2.24 0 0 0 .56-1.62.54.54 0 0 1 .52-.57.58.58 0 0 1 .57.52 3.31 3.31 0 0 1 -1 2.51.59.59 0 0 1 -.3.12z" fill="#2f3640"/><path d="m234 454.57 1.9-11.66h9.13l1.67 15.2c-6.45.72-11.35.1-12.7-3.54z" fill="#ffadae"/><path d="m247.87 427.77s-5.4-2.24-7.31-2.24c-6.87 0-8.91 3.74-10.18 7.28-3.17 8.8 4.31 10.51 4.47 16.77 0 2 4.19 2.94 6.36 2.58 7.33-1.22 5.34-15.21 10.13-15.21a15.42 15.42 0 0 0 -3.47-9.18z" fill="#171a1f"/><path d="m251.34 437 .29 4.43a2 2 0 0 1 -1 1.84l-.94.54-2.69-4.44c1.4-1.6 2.85-2.62 4.34-2.37z" fill="#171a1f"/><path d="m241.38 435.36a.55.55 0 0 1 -.55-.51.54.54 0 0 1 .5-.58c3.92-.31 7-1.48 9.14-3.48a.55.55 0 0 1 .77 0 .54.54 0 0 1 0 .77c-2.34 2.17-5.63 3.44-9.8 3.77z" fill="#ffadae"/><path d="m234.53 451.58c-3 3.34-2.05 6 .48 7.53 3.73 2.23 12.2 1.07 14.29 2.19l-2.9-6.25c-5.61 2-12.24-.47-11.87-3.47z" fill="#fff"/><path d="m250.39 442.84c.28 1.73-.59 3.31-1.94 3.53s-2.68-1-2.95-2.74.59-3.31 1.95-3.53 2.67 1.02 2.94 2.74z" fill="#ffadae"/><path d="m230.56 432.4c1.11 2.08 6.44 2.75 10.82 2.41 8.29-.64 12.23-5.12 12.68-10.29-3.8.92-9.68-1.42-13.65-1.42-7.01 0-10.08 4.33-9.85 9.3z" fill="#171a1f"/><path d="m228.68 521.66c.1-.8 4.66-14 4.66-14l-.67 17.88z" fill="#171a1f"/><path d="m196.76 331.42-75.42-46.06a7.16 7.16 0 0 1 -3.24-5.62l-4.75-71.5 5.7-3.29a2.27 2.27 0 0 1 2.29.23l78.75 42.59a7.16 7.16 0 0 1 3.24 5.62v72.69a2.28 2.28 0 0 1 -1 2.1z" fill="#fff"/><path d="m194.39 331.24-78.74-42.59a7.17 7.17 0 0 1 -3.25-5.65v-72.66c0-2.07 1.46-2.91 3.25-1.88l78.74 42.59a7.18 7.18 0 0 1 3.25 5.63v72.69c0 2.07-1.45 2.91-3.25 1.87z" fill="#eaeaea"/><path d="m425.19 421.36-75.41-46.06a7.18 7.18 0 0 1 -3.25-5.63l-4.74-71.5 5.69-3.29a2.28 2.28 0 0 1 2.3.23l78.74 42.59a7.15 7.15 0 0 1 3.25 5.62v72.68a2.27 2.27 0 0 1 -.95 2.1z" fill="#fff"/><path d="m422.83 421.17-78.75-42.59a7.16 7.16 0 0 1 -3.24-5.62v-72.69c0-2.07 1.45-2.91 3.24-1.88l78.75 42.61a7.17 7.17 0 0 1 3.25 5.62v72.68c-.01 2.07-1.46 2.91-3.25 1.87z" fill="#eaeaea"/><path d="m545.17 394.64-75.41-46.06a7.16 7.16 0 0 1 -3.25-5.62l-4.74-71.51 5.69-3.29a2.28 2.28 0 0 1 2.3.23l78.74 42.61a7.16 7.16 0 0 1 3.25 5.62v72.7a2.28 2.28 0 0 1 -1 2.1z" fill="#fff"/><path d="m542.81 394.46-78.75-42.59a7.2 7.2 0 0 1 -3.24-5.63v-72.69c0-2.07 1.45-2.91 3.24-1.87l78.75 42.59a7.17 7.17 0 0 1 3.25 5.62v72.69c-.01 2.07-1.46 2.91-3.25 1.88z" fill="#eaeaea"/><path d="m300.89 265.29-75.41-46.06a7.18 7.18 0 0 1 -3.25-5.63l-4.74-71.5 5.69-3.29a2.28 2.28 0 0 1 2.3.23l78.74 42.59a7.15 7.15 0 0 1 3.25 5.62v72.69a2.26 2.26 0 0 1 -1 2.1z" fill="#fff"/><path d="m298.53 265.1-78.75-42.59a7.16 7.16 0 0 1 -3.24-5.62v-72.69c0-2.07 1.45-2.91 3.24-1.87l78.75 42.59a7.17 7.17 0 0 1 3.25 5.62v72.69c-.01 2.07-1.46 2.91-3.25 1.87z" fill="#eaeaea"/><path d="m418.87 221.76-75.42-46.07a7.16 7.16 0 0 1 -3.24-5.62l-4.75-71.5 5.7-3.29a2.27 2.27 0 0 1 2.29.23l78.75 42.59a7.16 7.16 0 0 1 3.24 5.62v72.69a2.27 2.27 0 0 1 -.95 2.1z" fill="#fff"/><path d="m416.5 221.57-78.74-42.57a7.15 7.15 0 0 1 -3.25-5.62v-72.71c0-2.07 1.46-2.91 3.25-1.88l78.74 42.6a7.15 7.15 0 0 1 3.25 5.62v72.69c0 2.07-1.45 2.91-3.25 1.87z" fill="#eaeaea"/><path d="m397.37 252.51-5.66 3.28 4.32 7.49v21.53a10.13 10.13 0 0 0 4.57 7.92l18.65 10.76 4.33 7.49 5.66-3.27a3.2 3.2 0 0 0 1.34-3v-29.29a10.13 10.13 0 0 0 -4.58-7.92l-25.4-14.67a3.27 3.27 0 0 0 -3.23-.32z" fill="#fff"/><path d="m394.94 296 25.4 14.66c2.53 1.46 4.58.28 4.58-2.64v-29.33a10.11 10.11 0 0 0 -4.58-7.92l-25.4-14.66c-2.53-1.46-4.57-.28-4.57 2.64v29.33a10.1 10.1 0 0 0 4.57 7.92z" fill="#48dbfb"/><path d="m414.86 276.29-14.44-8.29c-2.41-1.39-4.36-.26-4.36 2.52v9.48a9.63 9.63 0 0 0 4.36 7.54l5.49 3.17 4.77 8.7v-5.94l4.17 2.41c2.41 1.39 4.36.26 4.36-2.52v-9.53a9.63 9.63 0 0 0 -4.35-7.54zm-1.23 13.32-12-6.92a1.92 1.92 0 0 1 -.87-1.5c0-.55.39-.78.87-.5l12 6.92a1.92 1.92 0 0 1 .87 1.5c0 .55-.39.77-.87.5zm0-3.74-12-6.92a1.92 1.92 0 0 1 -.87-1.5c0-.55.39-.77.87-.5l12 6.92a1.94 1.94 0 0 1 .86 1.5c.01.55-.38.77-.85.5zm0-3.74-12-6.92a1.92 1.92 0 0 1 -.87-1.5c0-.55.39-.77.87-.5l12 6.92a1.94 1.94 0 0 1 .86 1.5c.01.55-.38.78-.85.5z" fill="#fff"/><path d="m626.79 627.05-5.66 3.27 4.32 7.49v21.53a10.12 10.12 0 0 0 4.57 7.92l18.65 10.74 4.32 7.49 5.67-3.27a3.21 3.21 0 0 0 1.34-3v-29.22a10.13 10.13 0 0 0 -4.57-7.93l-25.43-14.7a3.2 3.2 0 0 0 -3.21-.32z" fill="#fff"/><path d="m624.36 670.53 25.4 14.67c2.53 1.46 4.57.28 4.57-2.64v-29.33a10.07 10.07 0 0 0 -4.57-7.92l-25.4-14.67c-2.53-1.46-4.57-.28-4.57 2.64v29.33a10.07 10.07 0 0 0 4.57 7.92z" fill="#59c3ff"/><path d="m635.3 660.3v-14a1.65 1.65 0 0 0 -.76-1.3c-.41-.24-.75 0-.75.44v14a2.24 2.24 0 0 1 .75.28 4.2 4.2 0 0 1 .76.58zm5-3.81v-7.33a1.66 1.66 0 0 0 -.75-1.3c-.41-.24-.75 0-.75.44v7.32a2.24 2.24 0 0 1 .75.28 4.14 4.14 0 0 1 .77.59zm-11.55-4.33v11.61a1.64 1.64 0 0 0 .75 1.3c.41.24.75 0 .75-.43v-11.64a2.24 2.24 0 0 1 -.75-.28 3.48 3.48 0 0 1 -.73-.56zm16.58 1.52v-1.61a1.64 1.64 0 0 0 -.75-1.3c-.41-.24-.75 0-.75.43v1.61a2.07 2.07 0 0 1 .75.29 3.43 3.43 0 0 1 .77.58zm-15.06-8.68v-1.61a1.67 1.67 0 0 0 -.75-1.3c-.42-.24-.75 0-.75.43v1.61a2.45 2.45 0 0 1 .75.29 4 4 0 0 1 .75.58zm8.55 18.71v5.89a1.69 1.69 0 0 0 .75 1.31c.42.23.75 0 .75-.44v-5.89a2.14 2.14 0 0 1 -.75-.29 4 4 0 0 1 -.75-.61zm5-2.81v11.61a1.67 1.67 0 0 0 .75 1.3c.42.24.75.05.75-.43v-11.64a2.4 2.4 0 0 1 -.75-.28 4.52 4.52 0 0 1 -.72-.59zm.75-6.94c-.87-.51-1.58-.1-1.58.91v3a3.5 3.5 0 0 0 1.58 2.74c.88.51 1.59.1 1.59-.91v-3a3.48 3.48 0 0 0 -1.56-2.77zm-15.08-8.71c-.88-.5-1.59-.09-1.59.92v3a3.48 3.48 0 0 0 1.59 2.74c.87.51 1.58.1 1.58-.91v-3a3.51 3.51 0 0 0 -1.55-2.78zm5 15.33c-.87-.51-1.58-.1-1.58.91v3a3.51 3.51 0 0 0 1.58 2.75c.88.51 1.59.1 1.59-.92v-3a3.48 3.48 0 0 0 -1.54-2.77zm5-3.81c-.87-.51-1.58-.1-1.58.91v3a3.5 3.5 0 0 0 1.58 2.74c.88.51 1.59.1 1.59-.91v-3a3.48 3.48 0 0 0 -1.51-2.77z" fill="#fff"/><path d="m478.74 214.36-5.67 3.27 4.33 7.5v21.53a10.13 10.13 0 0 0 4.57 7.92l18.65 10.76 4.32 7.49 5.67-3.27a3.21 3.21 0 0 0 1.34-3v-29.29a10.12 10.12 0 0 0 -4.57-7.92l-25.38-14.67a3.22 3.22 0 0 0 -3.26-.32z" fill="#fff"/><path d="m476.31 257.85 25.4 14.66c2.53 1.46 4.57.28 4.57-2.64v-29.33a10.09 10.09 0 0 0 -4.57-7.92l-25.4-14.62c-2.53-1.45-4.58-.27-4.58 2.65v29.33a10.11 10.11 0 0 0 4.58 7.87z" fill="#59c3ff"/><path d="m489 259.7a7.44 7.44 0 0 1 -3.36-5.83c0-2.14 1.5-3 3.36-1.94a7.45 7.45 0 0 1 3.36 5.83c.01 2.14-1.5 3.01-3.36 1.94zm5.46-6.74a3 3 0 0 1 -1.06-1.13 12.74 12.74 0 0 0 -4.4-4.64c-1.66-1-3.23-1.11-4.4-.43a1.09 1.09 0 0 1 -1.07-.11 3.36 3.36 0 0 1 -1.53-2.65 1.06 1.06 0 0 1 .44-1c1.74-1 4.06-.78 6.53.65a18.68 18.68 0 0 1 6.53 6.89c.59 1 .59 2.13 0 2.47a1.09 1.09 0 0 1 -1.07-.11zm-14.24-12.06a3.41 3.41 0 0 1 -1.51-2.61 1 1 0 0 1 .45-1c2.63-1.52 6.13-1.17 9.85 1a28.32 28.32 0 0 1 9.85 10.4c.59 1 .59 2.12 0 2.46a1.09 1.09 0 0 1 -1.07-.11 3 3 0 0 1 -1.06-1.12 22.22 22.22 0 0 0 -7.72-8.15c-2.92-1.68-5.66-2-7.72-.77a1.06 1.06 0 0 1 -1.07-.1zm20.89 8.23a3.14 3.14 0 0 1 -1.06-1.13 31.66 31.66 0 0 0 -11-11.65c-4.17-2.41-8.09-2.8-11-1.1a1.06 1.06 0 0 1 -1.07-.1 3.06 3.06 0 0 1 -1.06-1.13c-.59-1-.59-2.12 0-2.46 3.51-2 8.19-1.57 13.17 1.3s9.65 7.82 13.17 13.91a3 3 0 0 1 .44 1.49 1 1 0 0 1 -.44 1 1.06 1.06 0 0 1 -1.15-.13z" fill="#fff"/><path d="m333.83 2.1-5.67 3.27 4.33 7.49v21.53a10.11 10.11 0 0 0 4.57 7.93l18.65 10.76 4.29 7.49 5.67-3.27a3.23 3.23 0 0 0 1.34-3v-29.3a10.1 10.1 0 0 0 -4.58-7.92l-25.37-14.66a3.2 3.2 0 0 0 -3.23-.32z" fill="#fff"/><path d="m331.4 45.59 25.4 14.66c2.52 1.46 4.57.28 4.57-2.64v-29.33a10.12 10.12 0 0 0 -4.57-7.92l-25.4-14.67c-2.53-1.46-4.58-.27-4.58 2.64v29.33a10.12 10.12 0 0 0 4.58 7.93z" fill="#59c3ff"/><path d="m344.1 34-10.68-12.7v12.37a3.7 3.7 0 0 0 1.68 2.91l18 10.39c.93.53 1.68.1 1.68-1v-12.31zm-3.66 2c0 .49-.35.69-.77.44l-3.05-1.76a1.67 1.67 0 0 1 -.76-1.32v-3.56c0-.49.34-.68.76-.44l3.05 1.76a1.7 1.7 0 0 1 .77 1.32zm14.1-4.8a3.64 3.64 0 0 0 -1.45-1.8l-17.99-10.4c-.62-.36-1.15-.27-1.44.13l10.44 12.39z" fill="#fff"/><path d="m453.75 429.65-5.66 3.27 4.32 7.49v21.53a10.1 10.1 0 0 0 4.58 7.92l18.64 10.77 4.33 7.49 5.66-3.27a3.21 3.21 0 0 0 1.34-3v-29.29a10.13 10.13 0 0 0 -4.57-7.93l-25.39-14.63a3.22 3.22 0 0 0 -3.25-.35z" fill="#fff"/><path d="m451.32 473.13 25.4 14.67c2.53 1.46 4.58.27 4.58-2.64v-29.33a10.12 10.12 0 0 0 -4.58-7.93l-25.4-14.66c-2.53-1.46-4.57-.28-4.57 2.64v29.33a10.09 10.09 0 0 0 4.57 7.92z" fill="#59c3ff"/><path d="m462.88 456.75-6.2-3.58v8.83l-3.33-1.92 6.43 11.14 6.43-3.71-3.33-1.93zm5.38-6.95-6.43 3.71 3.33 1.92v8.86l6.21 3.58v-8.87l3.33 1.92z" fill="#fff"/><path d="m152.93 84.05-5.67 3.27 4.33 7.49v21.53a10.13 10.13 0 0 0 4.57 7.92l18.65 10.74 4.32 7.5 5.67-3.28a3.2 3.2 0 0 0 1.34-3v-29.22a10.11 10.11 0 0 0 -4.58-8l-25.4-14.66a3.2 3.2 0 0 0 -3.23-.29z" fill="#fff"/><path d="m150.5 127.53 25.4 14.67c2.52 1.45 4.57.27 4.57-2.65v-29.33a10.13 10.13 0 0 0 -4.57-7.92l-25.4-14.66c-2.53-1.46-4.58-.28-4.58 2.64v29.33a10.1 10.1 0 0 0 4.58 7.92z" fill="#48dbfb"/><path d="m172.22 109-18.05-10.47c-.71-.41-1.29-.08-1.29.75v19.37a2.85 2.85 0 0 0 1.29 2.23l18.05 10.42c.72.41 1.29.08 1.29-.74v-19.37a2.83 2.83 0 0 0 -1.29-2.19zm-4.41-1a2.5 2.5 0 0 1 1.13 2c0 .72-.51 1-1.13.66a2.51 2.51 0 0 1 -1.13-2c0-.76.51-1.05 1.13-.66zm-3.24-1.87a2.5 2.5 0 0 1 1.13 2c0 .72-.51 1-1.13.65a2.47 2.47 0 0 1 -1.13-2c0-.78.5-1.04 1.13-.68zm7.37 23.22-17.49-10.09v-13.97l17.49 10.09zm-.88-16.87a2.49 2.49 0 0 1 -1.13-2c0-.72.5-1 1.13-.65a2.5 2.5 0 0 1 1.12 2c0 .69-.5.98-1.12.62z" fill="#fff"/><path d="m458.63 149.22-5.63 3.27 4.32 7.49v21.53a10.1 10.1 0 0 0 4.58 7.92l18.64 10.77 4.33 7.49 5.66-3.27a3.22 3.22 0 0 0 1.34-3v-29.3a10.13 10.13 0 0 0 -4.57-7.92l-25.4-14.66a3.22 3.22 0 0 0 -3.27-.32z" fill="#fff"/><path d="m456.2 192.7 25.4 14.67c2.53 1.46 4.58.27 4.58-2.64v-29.33a10.12 10.12 0 0 0 -4.58-7.93l-25.4-14.66c-2.53-1.46-4.57-.28-4.57 2.64v29.33a10.09 10.09 0 0 0 4.57 7.92z" fill="#59c3ff"/><path d="m467.51 180.09 2.29-9.2a15.38 15.38 0 0 0 -2.29-1.65c-5.19-3-9.39-.56-9.39 5.43s4.2 13.27 9.39 16.26 9.39.57 9.39-5.42a15.21 15.21 0 0 0 -.28-2.81zm4.9-11.23-.16.62-2.25 9.19 9.11 2.61.61.18a23.4 23.4 0 0 0 -7.31-12.6z" fill="#fff"/><path d="m267.67 78.51-5.67 3.27 4.33 7.49v21.53a10.12 10.12 0 0 0 4.57 7.92l18.65 10.77 4.32 7.49 5.67-3.27a3.21 3.21 0 0 0 1.34-3v-29.29a10.12 10.12 0 0 0 -4.58-7.93l-25.4-14.66a3.2 3.2 0 0 0 -3.23-.32z" fill="#fff"/><path d="m265.24 122 25.4 14.67c2.52 1.46 4.57.27 4.57-2.64v-29.34a10.11 10.11 0 0 0 -4.57-7.93l-25.4-14.66c-2.53-1.46-4.58-.28-4.58 2.64v29.33a10.08 10.08 0 0 0 4.58 7.93z" fill="#59c3ff"/><path d="m277.94 94.7c-7-4-12.72-.76-12.72 7.34s5.71 18 12.72 22 12.71.76 12.71-7.34-5.65-17.95-12.71-22zm10.78 19.82-3-1.71a31.41 31.41 0 0 0 -2.5-11.23 24.37 24.37 0 0 1 5.5 12.94zm-11.72-18.02v11.24l-5-2.88c.24-5.49 2.36-8.96 5-8.36zm0 13.42v11.25c-2.63-2.44-4.75-8.36-5-14.13zm1.89 12.34v-11.26l5 2.89c-.25 5.5-2.37 8.97-5.01 8.37zm0-13.43v-11.24c2.64 2.44 4.76 8.36 5 14.13zm-6.27-13.4c-1.43 1.61-2.36 4.52-2.51 8.34l-3-1.71c.36-4.01 2.48-6.4 5.5-6.63zm-5.46 8.81 3 1.71a31.63 31.63 0 0 0 2.51 11.23 24.49 24.49 0 0 1 -5.52-12.94zm16.12 19.09c1.43-1.61 2.36-4.52 2.5-8.34l3 1.7c-.37 4.02-2.49 6.41-5.51 6.64z" fill="#fff"/><path d="m164.73 348.54-5.67 3.27 4.33 7.5v21.53a10.13 10.13 0 0 0 4.57 7.92l18.65 10.76 4.32 7.49 5.67-3.27a3.21 3.21 0 0 0 1.34-3v-29.29a10.1 10.1 0 0 0 -4.58-7.92l-25.36-14.67a3.22 3.22 0 0 0 -3.27-.32z" fill="#fff"/><path d="m162.3 392 25.4 14.66c2.52 1.46 4.57.28 4.57-2.64v-29.3a10.12 10.12 0 0 0 -4.57-7.92l-25.4-14.67c-2.53-1.45-4.58-.27-4.58 2.64v29.34a10.11 10.11 0 0 0 4.58 7.89z" fill="#59c3ff"/><path d="m179.1 375.43-8.21-4.74c-.77-.44-1.39-.08-1.39.81v9.5a3.06 3.06 0 0 0 1.39 2.41l8.21 4.75c.77.44 1.4.08 1.4-.81v-9.48a3.1 3.1 0 0 0 -1.4-2.44zm6.45 8.36c.26.15.47 0 .47-.28a1 1 0 0 0 -.47-.82l-3.15-1.82v-1.17l3.15 1.82c.26.15.47 0 .47-.28a1 1 0 0 0 -.47-.82l-3.17-1.82a7.43 7.43 0 0 0 -3-5.17v-3.66a1 1 0 0 0 -.48-.82c-.26-.15-.47 0-.47.28v3.63l-1-.58v-3.64a1.06 1.06 0 0 0 -.48-.82c-.26-.15-.47 0-.47.27v3.64l-1-.59v-3.63a1 1 0 0 0 -.47-.82c-.26-.16-.48 0-.48.27v3.63l-1-.58v-3.63a1.05 1.05 0 0 0 -.47-.83c-.27-.15-.48 0-.48.28v3.63l-1-.58v-3.64a1 1 0 0 0 -.48-.82c-.26-.15-.47 0-.47.27v3.66a1.91 1.91 0 0 0 -3 1.72l-3.16-1.83c-.26-.15-.47 0-.47.28a1 1 0 0 0 .47.82l3.15 1.82v1.17l-3.15-1.82c-.26-.15-.47 0-.47.27a1.05 1.05 0 0 0 .47.83l3.15 1.81v1.17l-3.15-1.81c-.26-.16-.47 0-.47.27a1 1 0 0 0 .47.82l3.15 1.82v1.17l-3.17-1.86c-.26-.15-.47 0-.47.28a1 1 0 0 0 .47.82l3.15 1.9v1.17l-3.15-1.82c-.26-.15-.47 0-.47.27a1 1 0 0 0 .47.82l3.16 1.83a7.43 7.43 0 0 0 3 5.17v3.65a1.07 1.07 0 0 0 .47.83.3.3 0 0 0 .48-.28v-3.64l1 .58v3.64a1 1 0 0 0 .48.82c.26.15.47 0 .47-.28v-3.66l1 .58v3.64a1.06 1.06 0 0 0 .48.82c.26.15.47 0 .47-.27v-3.64l1 .59v3.63a1 1 0 0 0 .47.82c.26.16.48 0 .48-.27v-3.63l1 .58v3.63a1.05 1.05 0 0 0 .47.83c.27.15.48 0 .48-.28v-3.65a1.91 1.91 0 0 0 3-1.72l3.17 1.82c.26.16.47 0 .47-.27a1 1 0 0 0 -.47-.82l-3.15-1.82v-1.17l3.15 1.82c.26.15.47 0 .47-.28a1 1 0 0 0 -.47-.82l-3.15-1.82v-1.17l3.15 1.82c.26.15.47 0 .47-.27a1.07 1.07 0 0 0 -.47-.83l-3.15-1.81v-1.14zm-4.1 4.09c0 1.49-1 2.1-2.35 1.35l-8.21-4.74a5.19 5.19 0 0 1 -2.34-4.06v-9.43c0-1.49 1-2.1 2.34-1.35l8.21 4.74a5.15 5.15 0 0 1 2.35 4.06z" fill="#fff"/><path d="m433.64 494.57-5.64 3.27 4.32 7.49v21.53a10.1 10.1 0 0 0 4.58 7.92l18.64 10.77 4.33 7.49 5.66-3.27a3.21 3.21 0 0 0 1.34-3v-29.29a10.11 10.11 0 0 0 -4.57-7.93l-25.4-14.66a3.22 3.22 0 0 0 -3.26-.32z" fill="#fff"/><path d="m431.21 538.05 25.4 14.67c2.53 1.46 4.58.28 4.58-2.64v-29.33a10.1 10.1 0 0 0 -4.57-7.92l-25.41-14.67c-2.52-1.46-4.57-.28-4.57 2.64v29.33a10.1 10.1 0 0 0 4.57 7.92z" fill="#59c3ff"/><path d="m443.91 513.75c-4.35-2.51-7.89-.47-7.89 4.56s7.89 19.89 7.89 19.89 7.9-5.74 7.9-10.78a17.46 17.46 0 0 0 -7.9-13.67zm0 12.54a6.57 6.57 0 0 1 -3-5.13c0-1.89 1.33-2.66 3-1.71a6.54 6.54 0 0 1 3 5.13c-.03 1.89-1.36 2.65-3 1.71z" fill="#fff"/><path d="m261 291.76-5.64 3.24 4.32 7.5v21.53a10.13 10.13 0 0 0 4.57 7.92l18.65 10.76 4.33 7.49 5.66-3.27a3.21 3.21 0 0 0 1.34-3v-29.26a10.12 10.12 0 0 0 -4.57-7.92l-25.4-14.67a3.24 3.24 0 0 0 -3.26-.32z" fill="#fff"/><path d="m258.59 335.25 25.41 14.66c2.53 1.46 4.57.28 4.57-2.64v-29.33a10.1 10.1 0 0 0 -4.57-7.94l-25.4-14.67c-2.53-1.45-4.57-.27-4.57 2.64v29.34a10.1 10.1 0 0 0 4.56 7.94z" fill="#59c3ff"/><path d="m279.86 325.25-.45-.23a7.31 7.31 0 0 0 .39-2.51 16.24 16.24 0 0 0 -7.34-12.73c-4.06-2.34-7.35-.44-7.35 4.25v.72a9.4 9.4 0 0 0 -1.45-1.06c-3.07-1.77-5.56-.34-5.56 3.21a12.3 12.3 0 0 0 5.56 9.63l6.15 3.55v-6.47l-3.58-2.07 5.69-3.29 5.69 9.86-3.56-2.11v6.47l5.75 3.32c2.59 1.5 4.65.31 4.65-2.62a10.18 10.18 0 0 0 -4.59-7.92z" fill="#fff"/><path d="m152.26 158.84-5.67 3.28 4.33 7.49v21.53a10.13 10.13 0 0 0 4.57 7.92l18.65 10.76 4.32 7.49 5.67-3.27a3.2 3.2 0 0 0 1.34-3v-29.29a10.1 10.1 0 0 0 -4.58-7.92l-25.4-14.67a3.25 3.25 0 0 0 -3.23-.32z" fill="#fff"/><path d="m149.83 202.33 25.4 14.67c2.52 1.46 4.57.28 4.57-2.64v-29.36a10.13 10.13 0 0 0 -4.57-7.92l-25.4-14.66c-2.53-1.46-4.58-.28-4.58 2.64v29.33a10.11 10.11 0 0 0 4.58 7.94z" fill="#59c3ff"/><path d="m172 185.21-18.9-10.91c-.75-.43-1.35-.08-1.35.77v3.28l21.6 12.47v-3.27a3 3 0 0 0 -1.35-2.34zm-7-.45a2.26 2.26 0 0 1 -1-1.76c0-.65.46-.91 1-.59a2.25 2.25 0 0 1 1 1.76c0 .65-.46.91-1 .59zm3 1.75a2.24 2.24 0 0 1 -1-1.76c0-.64.46-.91 1-.58a2.24 2.24 0 0 1 1 1.76c0 .64-.42.91-1 .58zm3 1.76a2.26 2.26 0 0 1 -1-1.76c0-.65.46-.91 1-.59a2.26 2.26 0 0 1 1 1.76c.08.65-.38.91-.94.59zm-19.33 3.61a3 3 0 0 0 1.35 2.34l18.98 10.91c.74.43 1.35.08 1.35-.77v-12.6l-21.6-12.47zm8.19-3.84c0-.85.52-.9 1.17-.11l4.64 5.75c.65.8.65 1.49 0 1.54l-4.64.38c-.65.05-1.17-.6-1.17-1.46z" fill="#fff"/><path d="m516.89 435.3-5.66 3.27 4.32 7.49v21.53a10.1 10.1 0 0 0 4.58 7.92l18.64 10.77 4.33 7.49 5.66-3.27a3.21 3.21 0 0 0 1.34-3v-29.29a10.11 10.11 0 0 0 -4.57-7.93l-25.4-14.66a3.22 3.22 0 0 0 -3.24-.32z" fill="#fff"/><path d="m514.46 478.78 25.4 14.67c2.53 1.46 4.58.27 4.58-2.64v-29.33a10.08 10.08 0 0 0 -4.58-7.92l-25.4-14.67c-2.52-1.46-4.57-.28-4.57 2.64v29.33a10.1 10.1 0 0 0 4.57 7.92z" fill="#48dbfb"/><path d="m348.32 227.11-5.66 3.27 4.32 7.49v21.53a10.08 10.08 0 0 0 4.58 7.92l18.64 10.77 4.33 7.49 5.66-3.27a3.21 3.21 0 0 0 1.34-3v-29.31a10.1 10.1 0 0 0 -4.53-7.9l-25.4-14.67a3.22 3.22 0 0 0 -3.28-.32z" fill="#fff"/><path d="m345.89 270.6 25.4 14.66c2.53 1.46 4.58.28 4.58-2.64v-29.33a10.08 10.08 0 0 0 -4.58-7.92l-25.4-14.67c-2.53-1.46-4.57-.27-4.57 2.64v29.33a10.11 10.11 0 0 0 4.57 7.93z" fill="#48dbfb"/><path d="m363.83 250.56c-2.06-1.19-4-1.24-5.24-.2a14.31 14.31 0 0 0 -5.24-5.85c-3.77-2.18-6.83-.41-6.83 3.94a13.85 13.85 0 0 0 1.84 6.44l9.55 16.64a2 2 0 0 0 .68.72.69.69 0 0 0 .68.07l9.57-5.63c1.18-.79 1.82-2.31 1.82-4.3a15.1 15.1 0 0 0 -6.83-11.83z" fill="#fff"/><path d="m612.35 292.82-5.67 3.27 4.33 7.49v21.53a10.1 10.1 0 0 0 4.57 7.92l18.65 10.77 4.32 7.49 5.67-3.27a3.21 3.21 0 0 0 1.34-3v-29.29a10.08 10.08 0 0 0 -4.58-7.92l-25.4-14.67a3.2 3.2 0 0 0 -3.23-.32z" fill="#fff"/><path d="m609.92 336.31 25.4 14.69c2.52 1.46 4.57.28 4.57-2.64v-29.36a10.12 10.12 0 0 0 -4.57-7.92l-25.4-14.67c-2.53-1.46-4.58-.27-4.58 2.64v29.33a10.12 10.12 0 0 0 4.58 7.93z" fill="#59c3ff"/><path d="m632.33 336.3c2.56 1.48 4.63.28 4.63-2.67a10.2 10.2 0 0 0 -4.63-8 4.51 4.51 0 0 0 -1.45-.55c-.56-4.69-3.81-9.92-7.75-12.19-3.51-2-6.48-1.08-7.48 2a9 9 0 0 0 -2.07-1.67c-2.93-1.7-5.31-.32-5.31 3.06a11.75 11.75 0 0 0 5.31 9.2z" fill="#fff"/><path d="m86.25 332.16-5.67 3.27 4.33 7.49v21.53a10.13 10.13 0 0 0 4.57 7.92l18.65 10.76 4.32 7.5 5.67-3.27a3.23 3.23 0 0 0 1.34-3v-29.3a10.11 10.11 0 0 0 -4.58-7.92l-25.4-14.66a3.2 3.2 0 0 0 -3.23-.32z" fill="#fff"/><path d="m83.82 375.64 25.4 14.67c2.52 1.45 4.57.27 4.57-2.64v-29.34a10.13 10.13 0 0 0 -4.57-7.92l-25.4-14.66c-2.53-1.46-4.58-.28-4.58 2.64v29.33a10.1 10.1 0 0 0 4.58 7.92z" fill="#48dbfb"/><path d="m86.29 352.82c-.41-.24-.74 0-.74.43v11.6a1.64 1.64 0 0 0 .74 1.28l4.71 2.74c.41.24.74.05.74-.42v-12.45l-1.07-.62zm20.78 13.05a4.18 4.18 0 0 0 -1.18-1.46 1.63 1.63 0 0 0 -.22-.17l-5.17-3a7.56 7.56 0 0 0 1.4-5.8 9.44 9.44 0 0 0 -2-4.09 1.05 1.05 0 0 0 -.58-.42.39.39 0 0 0 -.46.17 20.47 20.47 0 0 1 -4.15 5.33l-1.79.43v11.79a22.71 22.71 0 0 0 2.34 2.94 17.31 17.31 0 0 0 3.8 3.07l5.13 3a.63.63 0 0 0 .25.09 1.31 1.31 0 0 0 1.87-1.17 3.4 3.4 0 0 0 -.31-1.77 1.43 1.43 0 0 0 .7-1.14 3.34 3.34 0 0 0 -.32-1.78 1.4 1.4 0 0 0 .7-1.13 3.42 3.42 0 0 0 -.31-1.78 1.44 1.44 0 0 0 .7-1.14 3.57 3.57 0 0 0 -.4-1.97z" fill="#fff"/><path d="m402.56 344.89-21.76-21.15v-.01l-21.71 2.1.02 7.21 21.71-2.1 21.76 21.16z" fill="#f16722"/><path d="m405.09 383.15-24.14 2.34-24.2-23.53-.07-25.86 24.14-2.33 24.2 23.52z" fill="#f16722"/><path d="m381 388.49-27-26.26-.07-28.86h.07l26.83-2.6 27 26.26.07 28.87h-.12zm26.4-23.72v-7.7l-26.53-25.79-26.46 2.56.07 28.34 26.52 25.82 26.46-2.56-.06-20.64" fill="#f16722"/><path d="m402.59 357.53.06 23.25-.04.01-3.56.34h-.01l-2.98.29-7.22.7-7.9.76-7.96-7.74-7.23-7.03-3-2.92-3.57-3.46-.06-23.26.59-.05 2.78-.27 3.95-.38 14.39-1.4 14.46 14.06 3.93 3.82 2.82 2.74z" fill="#fff"/><path d="m379 367.19-1.91-4a5.18 5.18 0 0 0 -1.22-1.69 2.87 2.87 0 0 0 -1.8-.62 10.61 10.61 0 0 1 -1.69 0 39.08 39.08 0 0 1 -3.18-9.63 15.28 15.28 0 0 1 1.9.39c.63.12 1.28.08 1.52-.38a2.08 2.08 0 0 0 .08-1.1 35.08 35.08 0 0 0 -.7-4.16 2.89 2.89 0 0 0 -1.92-2.36 4.88 4.88 0 0 0 -3.14-.68c-1.17.28-1.69 1.43-1.93 2.65a17.21 17.21 0 0 0 .3 6.83 33.44 33.44 0 0 0 6.31 13.4c1.19 1.53 2.71 3.1 4.3 3.56a4.17 4.17 0 0 0 2.64-.17c.38-.13.78-.31.83-.74a2.85 2.85 0 0 0 -.39-1.3z" fill="#f16722"/><path d="m397 361.63a11 11 0 0 0 -2.32-5.27 20.3 20.3 0 0 0 -10.91-7.23c-2.37-.57-4.4-.34-5.72.65-1.51 1.12-2 3.26-1.31 5.58a12.43 12.43 0 0 0 1.91 3.61 16.41 16.41 0 0 0 1.35 1.63v3.29a1.42 1.42 0 0 0 .49 1 1.72 1.72 0 0 0 .44.3.87.87 0 0 0 .51.08l3.43-.55.24-.05.27.12c3.1 1.5 5.72 2.11 7.77 1.81a4.26 4.26 0 0 0 3.85-4.97zm-11.52 1.45a3.1 3.1 0 0 0 -.92-.33 1.86 1.86 0 0 0 -.68.05l-2 .33v-1.81a1.37 1.37 0 0 0 -.08-.66 2.56 2.56 0 0 0 -.64-.92 15 15 0 0 1 -1.21-1.43 9.44 9.44 0 0 1 -1.44-2.71 3.63 3.63 0 0 1 1-4.12 5.57 5.57 0 0 1 4.64-.5 17.08 17.08 0 0 1 9.23 6 8.37 8.37 0 0 1 1.76 4 3.27 3.27 0 0 1 -3 3.7c-1.7.25-3.95-.28-6.68-1.6z" fill="#f16722"/><ellipse cx="384.3" cy="359.87" fill="#f16722" rx=".74" ry="1.18" transform="matrix(.72705417 -.6865801 .6865801 .72705417 -142.19 362.07)"/><path d="m383.77 352.85a1.59 1.59 0 0 0 .85 1.22 11.16 11.16 0 0 1 5.83 7 1.66 1.66 0 0 0 1.08 1.08c.53.14.86-.21.72-.76a15.2 15.2 0 0 0 -7.48-9c-.55-.25-1.01-.05-1 .46z" fill="#f16722"/><path d="m384 356.39a1.53 1.53 0 0 0 .73 1.16 4.3 4.3 0 0 1 2.11 2.64 1.7 1.7 0 0 0 .85.94c.65.3 1.11-.1.89-.77a8.6 8.6 0 0 0 -3.58-4.36c-.57-.33-1.06-.13-1 .39z" fill="#f16722"/><path d="m172.95 254.11-18.83-22.45-18.86 4.48v8.36l18.85-4.49 18.83 22.46z" fill="#32c0e3"/><path d="m175.04 298.22-20.97 4.99-20.94-24.97.02-29.96 20.96-4.99 20.94 24.97z" fill="#32c0e3"/><path d="m154.07 306.69-23.38-27.87v-33.45h.11l23.29-5.55 23.38 27.88v33.44h-.1zm23-30v-8.92l-23-27.37-23 5.47v32.84l23 27.37 23-5.47v-23.91" fill="#32c0e3"/><path d="m172.94 268.76-.01 26.94-.04.01-3.09.74h-.01l-2.59.62-6.27 1.49-6.85 1.63-6.9-8.22-6.25-7.46-2.6-3.1-3.09-3.67.02-26.95.51-.12 2.41-.57 3.43-.82 12.5-2.97 12.51 14.92 3.4 4.05 2.44 2.91z" fill="#fff"/><path d="m146.23 259.36a4.47 4.47 0 0 0 -1.81-1.67 1.92 1.92 0 0 0 -1.83-.05 2 2 0 0 0 -.8 1.92v15.28a4.79 4.79 0 0 0 .77 2.65 4.47 4.47 0 0 0 1.81 1.67 2 2 0 0 0 1.84.08 2 2 0 0 0 .8-1.92v-15.32a4.74 4.74 0 0 0 -.78-2.64z" fill="#32c0e3"/><path d="m164.55 280.55c-.27-.53-.56-1.06-1.19-2.16l3.07-2.3c1-.77 1.31-2.48.77-4.37a6.83 6.83 0 0 0 -3.23-4.23l-9.62-4.59c-1.92-.92-3.5.27-3.5 2.65v11.86a7.43 7.43 0 0 0 2.15 5c1.29 1.28 2.82 1.64 3.82.89l3.3-2.49c.63 1.1.91 1.64 1.18 2.14.39.76.8 1.55 2.25 4a3.9 3.9 0 0 0 1.54 1.58 1.75 1.75 0 0 0 .57.16 1.56 1.56 0 0 0 1.75-1.35 4 4 0 0 0 -.61-2.91c-1.47-2.43-1.87-3.14-2.25-3.88zm-9.38-3.43a3.29 3.29 0 0 1 -.95-2.24v-5.88a1.41 1.41 0 0 1 .46-1.14 1 1 0 0 1 1.11 0l4.8 2.3a3 3 0 0 1 1.44 1.87 1.84 1.84 0 0 1 -.34 1.95l-4.83 3.63a1.05 1.05 0 0 1 -1.1 0 2.55 2.55 0 0 1 -.59-.49z" fill="#32c0e3"/><path d="m277.24 188.9-18.73-18.67h-.01l-19.32 3.98-.18 7.02 19.32-3.98h.01l18.73 18.68z" fill="#a30000"/><path d="m278.44 225.96-21.49 4.43-20.84-20.76.65-25.2 21.49-4.42 20.84 20.76z" fill="#a30000"/><path d="m256.88 233.32-23.26-23.18.72-28.12h.11l23.88-4.92 23.26 23.18-.72 28.12h-.11zm24.12-25.47.19-7.51-22.85-22.76-23.55 4.86-.71 27.61 22.84 22.76 23.53-4.81.52-20.11" fill="#a30000"/><path d="m276.93 201.22-.59 22.65-.03.01-3.17.65h-.01l-2.65.55-6.43 1.32-7.03 1.45-6.86-6.83-6.22-6.2-2.59-2.58-3.07-3.06.58-22.65.53-.11 2.47-.51 3.52-.72 12.81-2.65 12.45 12.41 3.38 3.37 2.43 2.43z" fill="#fff"/><path d="m256.74 211.88v-1.73l11.75 4.53.23-8.67-21.85-8.43c0-.11 0-.19 0-.27l.12-4.85c0-1.12.77-1.57 1.86-1.15l19.93 7.7a2.73 2.73 0 0 1 1.77 2.13 1.63 1.63 0 0 1 0 .38q-.16 6.82-.35 13.64c0 1.2-.72 1.65-1.89 1.2l-11.31-4.36zm12.16-11.07-20.17-7.81v1.7l20.16 7.79z" fill="#a30000"/><path d="m249.42 200.29c-3.28-1.28-6 .4-6.1 3.75a9.42 9.42 0 0 0 5.7 8.36c3.28 1.28 6-.4 6.09-3.78a9.44 9.44 0 0 0 -5.69-8.33zm2.66 7.88c0 .05 0 .09-.06.11a.13.13 0 0 1 -.12 0l-1.84-.71-.05 1.9c0 .1-.08.15-.18.11l-1.38-.54a.19.19 0 0 1 -.12-.1.19.19 0 0 1 -.05-.14l.05-1.9-1.84-.71a.19.19 0 0 1 -.12-.1.24.24 0 0 1 -.05-.14v-1.43c0-.1.08-.15.18-.11l1.83.71v-1.9a.11.11 0 0 1 .05-.1.12.12 0 0 1 .13 0l1.39.54a.25.25 0 0 1 .16.24v1.9l1.83.71a.26.26 0 0 1 .17.24z" fill="#a30000"/><path d="m393.63 142.44-18.93-16.64v-.01l-19.04 6.87-.04 7.3 19.05-6.87v-.01l18.93 16.65z" fill="#ffb900"/><path d="m395.58 180.61-21.18 7.64-21.05-18.51.13-26.16 21.17-7.64 21.05 18.52z" fill="#ffb900"/><path d="m374.39 191.29-23.5-20.67.14-29.19h.1l23.54-8.49 23.5 20.67-.17 29.15h-.11zm23.31-29.78v-7.79l-23.08-20.29-23.21 8.37-.14 28.67 23.08 20.29 23.21-8.37.1-20.88" fill="#ffb900"/><path d="m393.57 155.22-.11 23.52-.04.02-3.12 1.12h-.01l-2.62.95-6.33 2.28-6.93 2.5-6.92-6.09-6.29-5.53-2.61-2.3-3.1-2.72.11-23.52.51-.19 2.44-.88 3.47-1.25 12.62-4.55 12.58 11.06 3.42 3.01 2.45 2.16z" fill="#fff"/><path d="m374.23 159.85a2.14 2.14 0 0 1 .63.27l1.43.88a4.09 4.09 0 0 0 -2.84-3.36 2.24 2.24 0 0 0 -2.88 2.34 4.13 4.13 0 0 0 2.43 3.68l-.47-1.65a1.92 1.92 0 0 1 .24-1.75 1.34 1.34 0 0 1 1.46-.41z" fill="#ffb900"/><path d="m373.4 168.24a10 10 0 0 1 -7-9.32c0-4.15 3.18-6.71 7.05-5.71a10 10 0 0 1 7 9.32c0 .34 0 .68-.07 1l2.12 1.31a9.79 9.79 0 0 0 .16-1.74c0-5.46-4.09-11-9.17-12.27s-9.24 2.07-9.27 7.52 4.09 11 9.17 12.26a10.17 10.17 0 0 0 1.67.27l-.7-2.47a6.68 6.68 0 0 1 -.96-.17z" fill="#ffb900"/><path d="m386.61 168.52-4.35-2.69-2.1-1.29-3.92-2.43-1.71-1.05a1.06 1.06 0 0 0 -.31-.14c-.54-.14-.93.31-.73 1l.56 2 1.3 4.55.69 2.44 1.44 5.05a1.53 1.53 0 0 0 1 1.06.57.57 0 0 0 .71-.28l2.37-4.75a.53.53 0 0 1 .36-.29l5-1.23c.71-.2.51-1.47-.31-1.95z" fill="#ffb900"/><path d="m521.68 317.11-19.05-16.63-19.06 5.6v6.89l19.06-5.6 19.05 16.64z" fill="#7dbb00"/><path d="m523.81 353.3-21.19 6.23-21.19-18.5v-24.73l21.2-6.23 21.19 18.5z" fill="#7dbb00"/><path d="m502.62 362.4-23.62-20.64v-27.61h.1l23.56-6.92 23.65 20.65v27.6h-.11zm23.23-27.06v-7.34l-23.22-20.3-23.24 6.83v27.1l23.23 20.28 23.23-6.83z" fill="#7dbb00"/><path d="m521.68 329.2v22.23l-.04.02-3.12.92-.01-.01-2.62.78-6.34 1.86-6.93 2.04-6.97-6.09-6.33-5.53-2.63-2.29-3.13-2.73.01-22.23.51-.15 2.44-.72 3.47-1.02 12.64-3.71 12.66 11.05 3.44 3 2.47 2.16z" fill="#fff"/><path d="m513.74 338.3v5.6l-2.25-.66-1.88-.54-1.81-.52-2.25-.66v-5.59l2.25.65 1.88.54 1.81.53zm-4.09-11.54a1.35 1.35 0 0 0 -1.85 1.33v6.6l-4.13-1.2v9.39l4.13 1.19v4.36a2.68 2.68 0 0 0 1.84 2.4 1.35 1.35 0 0 0 1.85-1.33v-4.36l4.13 1.19v-9.33l-4.13-1.2v-6.59a2.68 2.68 0 0 0 -1.84-2.4z" fill="#7dbb00"/><path d="m501.47 323.76-4.14-1.2v-1.56a2.69 2.69 0 0 0 -1.85-2.41 1.36 1.36 0 0 0 -1.85 1.34v1.59l-4.14-1.2v13.47l4.14 1.2v5.34a2.68 2.68 0 0 0 1.85 2.41 1.35 1.35 0 0 0 1.85-1.34v-5.4l4.14 1.2z" fill="#7dbb00"/><path d="m523.09 473.3a5.78 5.78 0 0 1 -.28 1.58c-.61 1.77-2.08 2.59-3.72 1.87a4.77 4.77 0 0 1 -1.87-1.51 8.09 8.09 0 0 1 -1.65-4.71v-.07c0-.16 0-.31 0-.47a4.59 4.59 0 0 1 .94-2.78 2.47 2.47 0 0 1 3.06-.67c2.09.92 3.66 3.94 3.52 6.76z" fill="#fff"/><path d="m523.09 473.3a5.78 5.78 0 0 1 -.28 1.58l-.44.75a2.47 2.47 0 0 1 -3.28 1.12 4.77 4.77 0 0 1 -1.87-1.51 8.09 8.09 0 0 1 -1.65-4.71v-.07a5.27 5.27 0 0 1 .62-2.69l.33-.56a2.47 2.47 0 0 1 3.06-.67c2.08.92 3.65 3.94 3.51 6.76z" fill="#fff"/><path d="m526.58 468.4-2.78 4.77c0-3.21-1.81-6.54-4.17-7.58a3.2 3.2 0 0 0 -2-.24l5.37-9.35a7.81 7.81 0 0 0 .38 2.37l2.83 8.95z" fill="#fff"/><path d="m537.32 477-6.49-20.46a6.36 6.36 0 0 0 -3.1-3.94l-.14-.06-.38-.11a2.42 2.42 0 0 0 -1.36 0 2.55 2.55 0 0 0 -1.19.87 6.15 6.15 0 0 0 -.5 5.41l2.84 8.95 3.65 11.51a6.73 6.73 0 0 0 2.58 3.66l.37.21a2.68 2.68 0 0 0 2 .21c1.86-.58 2.62-3.4 1.72-6.25z" fill="#fff"/><path d="m523.09 473.3a5.78 5.78 0 0 1 -.28 1.58c-.61 1.77-2.08 2.59-3.72 1.87-2-.86-3.45-3.57-3.52-6.22v-.07c0-.16 0-.31 0-.47a4.59 4.59 0 0 1 .94-2.78 2.47 2.47 0 0 1 3.06-.67c2.09.92 3.66 3.94 3.52 6.76z" fill="#fff"/><path d="m523.09 473.3a5.78 5.78 0 0 1 -.28 1.58c-.61 1.77-2.08 2.59-3.72 1.87a4.77 4.77 0 0 1 -1.87-1.51 8.09 8.09 0 0 1 -1.65-4.71v-.07c0-.16 0-.31 0-.47a4.59 4.59 0 0 1 .94-2.78 2.47 2.47 0 0 1 3.06-.67c2.09.92 3.66 3.94 3.52 6.76z" fill="#fff"/></svg>