<svg enable-background="new 0 0 512 512" viewBox="0 0 512 512" xmlns="http://www.w3.org/2000/svg"><g fill="#ffb900"><path d="m413.8 93.4-157.8-91v-.1l-157.8 91.1v56.5l157.8-91.1 157.8 91.1z"/><path d="m431.4 384.8-175.4 101.3-175.4-101.3v-202.5l175.4-101.3 175.4 101.3z"/><path d="m256 509.7-195.8-113.1v-226.1l.8-.5 195-112.6 195.8 113.1v226.1l-.9.5zm192.3-276.9v-60.3l-192.3-111-192.3 111v222l192.3 111 192.3-111z"/></g><path d="m413.8 192.5v182.1l-.3.2-25.9 14.9h-.1l-21.6 12.6-52.5 30.3-57.4 33.1-57.7-33.3-52.4-30.3-21.8-12.6-25.9-14.9v-182.1l4.3-2.5 20.2-11.7 28.7-16.5 104.6-60.4 104.8 60.5 28.5 16.4 20.5 11.9z" fill="#fff"/><path d="m253.4 266.7c1.8 0 3.5.3 5.2.9l11.9 4c-1.7-11.5-11.6-20.4-23.6-20.4-13.2 0-23.9 10.7-23.9 23.9 0 12 8.8 21.9 20.4 23.6l-4-11.9c-1.6-4.9-.9-10 1.9-14 2.8-3.9 7.3-6.1 12.1-6.1z" fill="#ffb900"/><path d="m246.9 333.3c-32.1 0-58.2-26.1-58.2-58.2s26.1-58.2 58.2-58.2 58.2 26.1 58.2 58.2c0 2.7-.2 5.3-.5 7.9l17.7 5.9c.8-4.5 1.3-9.1 1.3-13.8 0-42.2-34.4-76.6-76.6-76.6s-76.6 34.4-76.6 76.6 34.4 76.6 76.6 76.6c4.7 0 9.3-.4 13.8-1.3l-5.9-17.7c-2.7.4-5.3.6-8 .6z" fill="#ffb900"/><path d="m356.5 309.2-36.2-12.1-17.4-5.8-32.6-10.9-14.2-4.8c-.9-.3-1.8-.4-2.6-.4-4.5 0-7.7 4.2-6.1 9.1l4.8 14.2 10.9 32.6 5.8 17.4 12.1 36.2c1.3 4 5 6.2 8.4 6.2 2.4 0 4.7-1.1 5.8-3.6l19.4-41.4c.6-1.3 1.7-2.4 3-3l41.5-19.5c6-2.8 4.3-11.9-2.6-14.2z" fill="#ffb900"/></svg>