<svg enable-background="new 0 0 512 512" viewBox="0 0 512 512" xmlns="http://www.w3.org/2000/svg"><path d="m413.8 93.4-157.8-91v-.1l-157.8 91.1v56.5l157.8-91.1 157.8 91.1z" fill="#f16722"/><path d="m431.4 384.8-175.4 101.3-175.4-101.3v-202.5l175.4-101.3 175.4 101.3z" fill="#f16722"/><path d="m256 509.7-195.8-113.1v-226.1l.8-.5 195-112.6 195.8 113.1v226.1l-.9.5zm192.3-276.9v-60.3l-192.3-111-192.3 111v222l192.3 111 192.3-111z" fill="#f16722"/><path d="m413.8 192.5v182.1l-.3.2-25.9 14.9h-.1l-21.6 12.6-52.5 30.3-57.4 33.1-57.7-33.3-52.4-30.3-21.8-12.6-25.9-14.9v-182.1l4.3-2.5 20.2-11.7 28.7-16.5 104.6-60.4 104.8 60.5 28.5 16.4 20.5 11.9z" fill="#fff"/><g fill="#f16722"><path d="m241.8 349.5-13.8-24.5c-2.3-3.6-4.8-7.5-8.8-9.1-4.2-1.7-9-.5-13.1 1.3-4.1 1.9-7.9 4.5-12.3 5.7-11-20.1-18.8-42-22.9-64.6 4.4-1.9 9.2-2.2 13.8-3.5s9.3-3.8 11-8.2c1.1-2.8.9-5.9.6-8.9-1-10.2-2.7-20.3-5-30.2-.7-3.1-1.8-6.5-4-8.8-2.5-2.6-6.5-2.8-9.9-3.1-7.9-.7-16.3.6-22.8 5.4-8.5 6.2-12.3 17.1-14.1 27.5-3 17.4-1.6 35.3 2.1 52.5 6.8 31.5 21.9 61.6 45.6 83.4 8.6 7.9 19.6 15 31.2 13.2 7.3-1.2 13.6-5.7 19.2-10.5 2.8-2.3 5.7-5.1 6-8.6.3-3-1.2-6.1-2.8-9z"/><path d="m372.9 243.9c-1.2-12.2-7.1-24-16.8-33.4-18.9-18.2-49.2-25.6-79.1-19.2-17.2 3.7-31.9 12.5-41.5 24.7-11 14.1-14.7 32.6-9.6 48.3 2.5 7.8 7.3 15.3 13.8 21.8 3.1 3 6.4 5.7 10 8.1v25.8c0 2.5 1.4 4.7 3.5 5.9 1 .5 2.1.8 3.2.8 1.3 0 2.6-.4 3.7-1.1l24.9-16.1 1.8-1.2c.3-.1 1.3 0 2 0 22.5 1.1 41.5-3.1 56.4-12.5 18.7-11.9 29.6-32.2 27.7-51.9zm-83.7 51c-1.8-.1-4.2-.2-6.7.6-2.2.7-3.8 1.9-4.9 2.7l-14.5 9.4v-14.2c.2-1.8 0-3.4-.6-4.9-1.2-2.9-3.4-4.3-4.6-5-3.1-2-6.1-4.3-8.8-7-5-4.9-8.6-10.6-10.5-16.3-3.7-11.5-.9-25.2 7.4-35.8 7.7-9.8 19.6-16.8 33.7-19.9 20.1-4.3 48.2-2.4 67 15.7 7.4 7.1 11.9 16 12.7 24.9 1.4 14.4-7.3 30.2-21.6 39.2-12.5 8-28.8 11.5-48.6 10.6z"/><circle cx="280.8" cy="273.7" r="7.1"/><path d="m277.1 220.5c.1 3.5 2.7 6.4 6.2 6.7 21.7 2 36.1 13.9 42.2 34.8 1 3.4 4.4 5.4 7.8 4.8 3.9-.8 6.2-4.6 5.3-8.4-6.3-24.3-29.2-43.2-54.2-44.7-4-.4-7.4 2.8-7.3 6.8z"/><path d="m278.3 247.6v.2c0 3.1 2.2 5.9 5.3 6.5 8.5 1.8 12.1 4.9 15.3 13.4 1 2.6 3.4 4.4 6.2 4.5 4.7.1 8.1-4.6 6.5-9-4.3-11.8-14.7-20.6-25.6-22.3-4.2-.6-7.7 2.7-7.7 6.7z"/></g></svg>