<svg enable-background="new 0 0 512 512" viewBox="0 0 512 512" xmlns="http://www.w3.org/2000/svg"><g fill="#115a80"><path d="m413.8 93.4-157.8-91v-.1l-157.8 91.1v56.5l157.8-91.1 157.8 91.1z"/><path d="m431.4 384.8-175.4 101.3-175.4-101.3v-202.5l175.4-101.3 175.4 101.3z"/><path d="m256 509.7-195.8-113.1v-226.1l.8-.5 195-112.6 195.8 113.1v226.1l-.9.5zm192.3-276.9v-60.3l-192.3-111-192.3 111v222l192.3 111 192.3-111z"/></g><path d="m413.8 192.5v182.1l-.3.2-25.9 14.9h-.1l-21.6 12.6-52.5 30.3-57.4 33.1-57.7-33.3-52.4-30.3-21.8-12.6-25.9-14.9v-182.1l4.3-2.5 20.2-11.7 28.7-16.5 104.6-60.4 104.8 60.5 28.5 16.4 20.5 11.9z" fill="#fff"/><path d="m357.3 215.5c-4.3-3.7-9.4-5.6-15.3-5.6s-11.1 1.9-15.5 5.7c-4.5 3.8-6.8 9.1-6.8 15.7v104.7c0 6.5 2.2 11.8 6.6 15.6 4.3 3.7 9.4 5.5 15.3 5.5 6 0 11.3-1.8 15.6-5.4 4.4-3.7 6.7-9 6.7-15.7v-104.7c0-6.7-2.2-12-6.6-15.8z" fill="#115a80"/><path d="m288.2 277.6v59.6c0 5.5-1.9 10.2-5.8 14.1s-8.7 5.9-14.2 5.9c-5.6 0-10.3-2-14.2-5.9s-5.9-8.6-5.9-14.1v-10h-60v10c0 5.5-1.9 10.2-5.8 14.1-4 3.9-8.7 5.9-14.2 5.9s-10.3-2-14.2-5.9-5.8-8.6-5.8-14.1v-60.7c.7-4.7 2.9-9.2 6.3-12.7l48.1-47.4c4.3-4.3 9.6-6.2 15.1-6.4h.7c5.6 0 11.1 2.1 15.4 6.5l48.2 48.6c3.5 3.4 5.7 7.9 6.3 12.5z" fill="#115a80"/><path d="m239 296.1-41.8-.2c-2.5 0-5-1.1-6.7-2.8-.9-.9-1.6-1.9-2.1-3.2-1.5-3.6-.7-7.7 2.1-10.4l20.9-20.8c1.9-1.8 4.3-2.8 6.8-2.8 2.4 0 4.9 1 6.8 2.8l20.9 21c2.7 2.7 3.5 6.8 2.1 10.4-1.6 3.7-5 6-9 6z" fill="#fff"/></svg>