<svg enable-background="new 0 0 512 512" viewBox="0 0 512 512" xmlns="http://www.w3.org/2000/svg"><g fill="#7dbb00"><path d="m413.8 93.4-157.8-91v-.1l-157.8 91.1v56.5l157.8-91.1 157.8 91.1z"/><path d="m431.4 384.8-175.4 101.3-175.4-101.3v-202.5l175.4-101.3 175.4 101.3z"/><path d="m256 509.7-195.8-113.1v-226.1l.8-.5 195-112.6 195.8 113.1v226.1l-.9.5zm192.3-276.9v-60.3l-192.3-111-192.3 111v222l192.3 111 192.3-111z"/></g><path d="m413.8 192.5v182.1l-.3.2-25.9 14.9h-.1l-21.6 12.6-52.5 30.3-57.4 33.1-57.7-33.3-52.4-30.3-21.8-12.6-25.9-14.9v-182.1l4.3-2.5 20.2-11.7 28.7-16.5 104.6-60.4 104.8 60.5 28.5 16.4 20.5 11.9z" fill="#fff"/><path d="m348 285.9v45.8h-18.7-15.5-15-18.7v-45.8h18.7 15.5 15zm-33.9-84.9c-8.4 0-15.3 6.8-15.3 15.3v54h-34.2v76.9h34.2v35.7c0 8.4 6.8 15.3 15.3 15.3 8.4 0 15.3-6.8 15.3-15.3v-35.7h34.2v-76.9h-34.2v-54c0-8.4-6.8-15.3-15.3-15.3z" fill="#7dbb00"/><path d="m246.5 195.8h-34.3v-13.1c0-8.5-6.9-15.3-15.3-15.3-8.5 0-15.3 6.9-15.3 15.3v13.1h-34.3v110.3h34.3v43.8c0 8.5 6.9 15.3 15.3 15.3 8.5 0 15.3-6.9 15.3-15.3v-43.8h34.3z" fill="#7dbb00"/></svg>