<svg enable-background="new 0 0 512 512" viewBox="0 0 512 512" xmlns="http://www.w3.org/2000/svg"><g fill="#32c0e3"><path d="m413.8 93.4-157.8-91v-.1l-157.8 91.1v56.5l157.8-91.1 157.8 91.1z"/><path d="m431.4 384.8-175.4 101.3-175.4-101.3v-202.5l175.4-101.3 175.4 101.3z"/><path d="m256 509.7-195.8-113.1v-226.1l.8-.5 195-112.6 195.8 113.1v226.1l-.9.5zm192.3-276.9v-60.3l-192.3-111-192.3 111v222l192.3 111 192.3-111z"/></g><path d="m413.8 192.5v182.1l-.3.2-25.9 14.9h-.1l-21.6 12.6-52.5 30.3-57.4 33.1-57.7-33.3-52.4-30.3-21.8-12.6-25.9-14.9v-182.1l4.3-2.5 20.2-11.7 28.7-16.5 104.6-60.4 104.8 60.5 28.5 16.4 20.5 11.9z" fill="#fff"/><path d="m190.1 215c-4.2-3.6-9.3-5.5-15.1-5.5s-11 1.9-15.3 5.6c-4.5 3.8-6.7 9-6.7 15.5v103.4c0 6.5 2.2 11.7 6.5 15.4 4.2 3.6 9.3 5.5 15.1 5.5 6 0 11.1-1.8 15.4-5.4 4.4-3.7 6.7-8.9 6.7-15.5v-103.3c-.1-6.7-2.2-11.9-6.6-15.7z" fill="#32c0e3"/><path d="m343.6 299.2c-2.3-2.7-4.6-5.4-9.9-10.8l25.6-25.4c8.5-8.4 11-21 6.5-32s-15.2-18.2-27.1-18.2h-80.5c-16.1 0-29.3 13.1-29.3 29.2l-.2 80.3c0 11.9 7 22.6 18 27.1 10.8 4.5 23.6 2 32-6.3l27.7-27.5c5.2 5.4 7.6 8.1 9.8 10.7 3.3 3.8 6.7 7.8 18.9 19.9 3.7 3.7 8.2 5.7 12.9 5.7 1.6 0 3.2-.2 4.7-.7 6.9-1.9 12.9-7.8 14.7-14.8 1.7-6.5-.1-12.8-5.1-17.7-12.1-11.9-15.5-15.8-18.7-19.5zm-78.5 7c-4.9-2-8-6.8-8-12.1l.1-40.1c0-3.6 1.5-6.8 3.8-9.2 2.4-2.4 5.6-3.8 9.2-3.8h40.3c5.3 0 10 3.2 12 8 2 4.9.9 10.5-2.9 14.2l-40.4 40.1c-2.5 2.5-5.8 3.8-9.2 3.8-1.6.2-3.3-.2-4.9-.9z" fill="#32c0e3"/></svg>