<svg height="105" viewBox="0 0 189 105" width="189" xmlns="http://www.w3.org/2000/svg" xmlns:xlink="http://www.w3.org/1999/xlink"><mask id="a" fill="#fff"><path d="m.0528.454h10.081v14.3957h-10.081z" fill="#fff" fill-rule="evenodd"/></mask><mask id="b" fill="#fff"><path d="m0 .5332243h42.01317v9.4662757h-42.01317z" fill="#fff" fill-rule="evenodd"/></mask><g fill="none" fill-rule="evenodd"><path d="m.5.5h188.024915v103.851986h-188.024915z" stroke="#e2e2e2"/><g transform="translate(44 37)"><path d="m.6158 13.9647c.412.232 1 .439 1.769.617.768.179 1.554.268 2.359.268.787 0 1.511-.098 2.171-.294s1.23-.485 1.704-.86c.472-.375.844-.824 1.113-1.353.267-.526.402-1.121.402-1.782 0-.804-.238-1.52-.712-2.145-.474-.626-1.265-1.116-2.373-1.474l-2.171-.697c-.822-.269-1.385-.55-1.689-.844-.303-.295-.455-.658-.455-1.086 0-.627.241-1.082.724-1.368.481-.285 1.161-.43 2.038-.43 1.088 0 2.074.198 2.948.591.267.125.464.189.589.189.232 0 .348-.163.348-.485v-.723c0-.214-.044-.384-.132-.508-.091-.126-.243-.251-.456-.377-.162-.088-.375-.177-.643-.267-.269-.09-.559-.17-.872-.242s-.642-.13-.991-.174c-.35-.046-.694-.067-1.033-.067-.68 0-1.324.09-1.931.267-.607.18-1.139.444-1.594.791-.457.349-.823.77-1.099 1.261-.278.491-.416 1.058-.416 1.701 0 .805.255 1.546.765 2.226.509.681 1.325 1.198 2.452 1.555l2.224.697c.752.25 1.266.519 1.543.805.276.287.414.642.414 1.073 0 .624-.263 1.108-.791 1.447-.527.338-1.272.508-2.238.508-.607 0-1.215-.06-1.823-.186-.607-.126-1.169-.305-1.688-.538-.162-.07-.292-.123-.389-.159-.099-.037-.193-.053-.283-.053-.232 0-.347.159-.347.481v.778c0 .144.032.286.094.429s.22.285.469.428" fill="#262f3e" mask="url(#a)" transform="translate(34 .5462)"/><path d="m10.4615 9.7658c0 .518-.048.961-.147 1.327-.101.368-.273.694-.522.98-.412.464-.895.791-1.449.977-.554.189-1.081.282-1.582.282-.697 0-1.233-.183-1.608-.549-.375-.368-.563-.908-.563-1.623 0-.767.25-1.357.751-1.769.5-.411 1.259-.616 2.278-.616.465 0 .943.03 1.435.094.49.062.959.147 1.407.253zm-1.756-2.695c-.564-.08-1.104-.119-1.622-.119-1.572 0-2.824.397-3.753 1.193-.93.794-1.394 1.844-1.394 3.15 0 1.231.375 2.217 1.127 2.949.75.731 1.768 1.099 3.056 1.099 1.803 0 3.307-.706 4.503-2.119.161.341.318.64.469.898.152.26.336.497.55.711.142.142.294.215.455.215.126 0 .26-.045.403-.134l.965-.643c.196-.144.295-.295.295-.457 0-.107-.037-.223-.107-.348-.215-.393-.38-.761-.496-1.099-.117-.339-.174-.795-.174-1.367v-4.987c0-1.681-.426-2.936-1.274-3.767-.851-.83-2.185-1.245-4.007-1.245-.841 0-1.637.098-2.388.293-.75.198-1.394.43-1.929.699-.215.106-.358.212-.429.321-.072.107-.108.286-.108.535v.75c0 .322.108.484.322.484.053 0 .133-.013.241-.041.108-.026.286-.094.536-.2.536-.216 1.086-.39 1.649-.524.563-.132 1.113-.2 1.649-.2 1.179 0 2.01.236 2.493.711.483.473.724 1.29.724 2.451v1.127c-.607-.143-1.193-.254-1.756-.336z" fill="#262f3e"/><path d="m18.1554 14.2429c.089.305.196.506.322.603.126.099.322.147.591.147h1.313c.285 0 .49-.053.616-.159.125-.108.223-.315.295-.618l2.359-9.866 2.385 9.866c.072.303.17.51.296.618.125.106.33.159.617.159h1.311c.27 0 .467-.048.591-.147.126-.097.233-.298.322-.603l3.698-11.85c.056-.159.09-.285.11-.375.016-.089.026-.169.026-.241 0-.249-.125-.375-.375-.375h-1.421c-.287 0-.488.049-.603.147-.117.098-.219.3-.308.603l-2.654 10.268-2.414-10.268c-.07-.303-.17-.505-.295-.603-.124-.098-.329-.147-.615-.147h-1.234c-.286 0-.492.049-.617.147-.126.098-.223.3-.294.603l-2.387 10.134-2.573-10.134c-.09-.303-.191-.505-.309-.603-.116-.098-.317-.147-.604-.147h-1.5c-.251 0-.375.126-.375.375 0 .108.044.314.134.616z" fill="#262f3e"/><path d="m40.9088 3.1205c-5.654 2.399-11.8 3.559-17.39 3.559-8.287 0-16.311-2.274-22.797-6.05-.569-.328-.99.253-.518.68 6.013 5.429 13.961 8.69 22.785 8.69 6.296 0 13.609-1.978 18.653-5.699.834-.618.12-1.541-.733-1.18" fill="#f7971d" mask="url(#b)" transform="translate(0 18.5462)"/><path d="m37.7252 19.5695c-.445.312-.367.743.126.683 1.624-.196 5.244-.63 5.889.196.646.828-.718 4.231-1.327 5.751-.183.46.213.647.629.298 2.705-2.264 3.406-7.005 2.851-7.692-.549-.68-5.28-1.263-8.168.764" fill="#f7971d"/><g fill="#262f3e"><path d="m60.5006 8.8103c.665 0 1.167-.219 1.503-.653.338-.434.507-1.082.507-1.943 0-1.722-.655-2.583-1.962-2.583-.673 0-1.348.262-2.022.781v3.569c.332.286.658.494.973.629.317.133.651.2 1.001.2zm-2.487 3.009c-.121 0-.182-.061-.182-.182v-8.273c0-.121.061-.184.182-.184h.232c.131 0 .199.063.207.184l.05.5c.373-.301.736-.521 1.09-.659.354-.137.718-.207 1.092-.207.786 0 1.407.283 1.864.846.452.566.68 1.339.68 2.323 0 .997-.238 1.794-.718 2.388-.48.592-1.124.888-1.937.888-.749 0-1.429-.275-2.047-.827v3.021c0 .121-.061.182-.184.182z"/><path d="m66.3482 8.8103c.308 0 .642-.062 1-.19.355-.124.719-.302 1.084-.528v-1.525c-.544-.145-1.073-.218-1.583-.218-1.137 0-1.707.437-1.707 1.315 0 .375.102.659.304.854.203.193.504.292.902.292m-.097.633c-.561 0-1.006-.159-1.335-.48s-.493-.75-.493-1.286c0-.593.203-1.061.609-1.401.406-.341.958-.513 1.657-.513.544 0 1.125.094 1.743.281v-1.024c0-.495-.118-.85-.354-1.067-.234-.214-.625-.322-1.168-.322-.555 0-1.146.102-1.78.305-.074.025-.135.037-.183.037-.081 0-.122-.052-.122-.158v-.196c0-.065.012-.115.037-.152.024-.038.066-.068.123-.093.64-.25 1.319-.376 2.034-.376s1.244.15 1.588.451c.348.3.519.755.519 1.363v4.314c0 .123-.06.184-.182.184h-.257c-.121 0-.186-.061-.195-.184l-.047-.524c-.701.562-1.43.841-2.194.841"/><path d="m71.1856 9.3093c-.122 0-.184-.061-.184-.184v-5.761c0-.122.062-.184.184-.184h.232c.131 0 .199.062.206.184l.063.706c.308-.342.61-.582.906-.726.298-.141.632-.213 1.005-.213.131 0 .235.005.317.012.122.008.183.075.183.196v.304c0 .034-.012.064-.037.091-.024.029-.057.044-.097.044-.065 0-.126-.003-.182-.006-.057-.005-.143-.007-.257-.007-.373 0-.704.069-.992.208-.289.138-.567.361-.836.669v4.483c0 .123-.06.184-.182.184z"/><path d="m77.3268 9.3825c-.48 0-.844-.129-1.096-.384-.254-.255-.379-.626-.379-1.115v-4.093h-.961c-.123 0-.183-.06-.183-.183v-.122c0-.065.011-.114.036-.145.024-.034.073-.054.147-.063l.986-.085.086-1.608c.008-.063.026-.111.053-.139.029-.029.072-.043.129-.043h.219c.123 0 .182.061.182.182v1.596h1.768c.121 0 .182.062.182.182v.245c0 .123-.061.183-.182.183h-1.768v4.059c0 .33.072.566.213.704.144.14.38.206.714.206.235 0 .443-.019.622-.06.088-.015.159-.03.212-.041.054-.014.092-.02.116-.02.09 0 .135.05.135.147v.182c0 .139-.045.225-.135.256-.316.107-.68.159-1.096.159"/><path d="m80.0313 9.3093c-.122 0-.184-.061-.184-.184v-5.761c0-.122.062-.184.184-.184h.245c.129 0 .198.062.206.184l.049.524c.397-.285.816-.505 1.255-.66.439-.153.866-.231 1.279-.231.593 0 1.046.157 1.359.47.312.313.468.774.468 1.383v4.275c0 .123-.06.184-.182.184h-.327c-.123 0-.186-.061-.186-.184v-3.982c0-.528-.099-.912-.302-1.152-.205-.239-.529-.359-.976-.359-.812 0-1.603.26-2.376.78v4.713c0 .123-.061.184-.182.184z"/><path d="m90.8629 5.8005c.008-.114.014-.248.014-.402 0-.585-.144-1.027-.429-1.329-.283-.299-.702-.449-1.255-.449-1.283 0-1.962.725-2.033 2.18zm-1.499 3.691c-.967 0-1.694-.274-2.18-.822-.487-.549-.732-1.363-.732-2.443 0-1.023.246-1.817.737-2.382.492-.565 1.179-.847 2.066-.847.74 0 1.306.213 1.701.633.391.424.59 1.03.59 1.816 0 .325-.018.569-.05.732-.024.122-.094.184-.206.184h-4.13c.008.852.194 1.481.559 1.887.366.406.931.609 1.696.609.584 0 1.14-.1 1.667-.304.106-.041.179-.061.22-.061.033 0 .061.014.085.041.024.029.038.064.038.105v.182c0 .131-.047.216-.135.257-.586.275-1.227.413-1.926.413z"/><path d="m93.2628 9.3093c-.122 0-.184-.061-.184-.184v-5.761c0-.122.062-.184.184-.184h.232c.131 0 .199.062.206.184l.063.706c.307-.342.61-.582.906-.726.298-.141.632-.213 1.006-.213.13 0 .235.005.317.012.121.008.182.075.182.196v.304c0 .034-.012.064-.037.091-.024.029-.057.044-.097.044-.065 0-.126-.003-.182-.006-.057-.005-.142-.007-.257-.007-.373 0-.704.069-.992.208-.289.138-.568.361-.835.669v4.483c0 .123-.061.184-.182.184z"/><path d="m58.0143 22.8444c-.122 0-.184-.061-.184-.184v-5.761c0-.122.062-.184.184-.184h.244c.129 0 .199.062.207.184l.05.524c.396-.285.815-.505 1.254-.66.439-.153.865-.231 1.278-.231.594 0 1.047.157 1.359.47.313.313.469.774.469 1.383v4.275c0 .123-.06.184-.182.184h-.328c-.123 0-.185-.061-.185-.184v-3.982c0-.528-.099-.912-.304-1.152-.202-.239-.527-.359-.974-.359-.813 0-1.604.26-2.377.78v4.713c0 .123-.06.184-.182.184z"/><path d="m68.8458 19.3356c.008-.114.014-.248.014-.402 0-.585-.144-1.027-.428-1.329-.284-.299-.703-.449-1.256-.449-1.283 0-1.961.725-2.033 2.18zm-1.499 3.691c-.966 0-1.694-.274-2.18-.822-.487-.549-.732-1.363-.732-2.443 0-1.023.246-1.817.737-2.382.492-.565 1.18-.847 2.066-.847.74 0 1.304.213 1.701.633.391.424.591 1.03.591 1.816 0 .325-.019.569-.051.732-.024.122-.094.184-.206.184h-4.13c.008.852.193 1.481.559 1.887s.931.609 1.694.609c.586 0 1.142-.1 1.669-.304.106-.041.179-.061.22-.061.033 0 .061.014.085.041.024.029.038.064.038.105v.182c0 .131-.047.216-.135.257-.586.275-1.227.413-1.926.413z"/><path d="m72.9518 22.9177c-.48 0-.844-.129-1.096-.384-.254-.255-.378-.626-.378-1.115v-4.093h-.963c-.122 0-.182-.06-.182-.183v-.122c0-.065.011-.114.036-.145.024-.034.073-.054.146-.063l.987-.085.087-1.608c.007-.063.025-.111.052-.139.029-.029.072-.043.13-.043h.218c.123 0 .183.061.183.182v1.596h1.767c.121 0 .182.062.182.182v.245c0 .123-.061.183-.182.183h-1.767v4.059c0 .33.071.566.212.704.144.14.38.206.715.206.234 0 .442-.019.621-.06.088-.015.16-.03.213-.041.053-.014.091-.02.115-.02.09 0 .135.05.135.147v.182c0 .139-.045.225-.135.256-.316.107-.68.159-1.096.159"/><path d="m76.9244 22.8444c-.114 0-.191-.056-.232-.17l-1.937-5.666c-.034-.09-.049-.15-.049-.184 0-.071.049-.109.147-.109h.39c.105 0 .175.053.207.159l1.668 5.167 1.476-5.156c.039-.112.117-.17.231-.17h.449c.114 0 .192.058.231.17l1.463 5.191 1.707-5.202c.032-.106.101-.159.207-.159h.366c.097 0 .145.038.145.109 0 .034-.016.094-.048.184l-1.986 5.666c-.043.114-.119.17-.232.17h-.401c-.114 0-.193-.056-.233-.17l-1.474-5.179-1.462 5.179c-.039.114-.118.17-.231.17z"/><path d="m87.0372 22.3942c1.404 0 2.107-.873 2.107-2.619 0-1.738-.703-2.609-2.107-2.609-1.406 0-2.109.871-2.109 2.609 0 1.746.703 2.619 2.109 2.619m0 .633c-.893 0-1.588-.285-2.084-.858-.497-.574-.743-1.371-.743-2.394 0-1.025.246-1.82.743-2.388.496-.57 1.191-.854 2.084-.854s1.588.284 2.083.854c.497.568.742 1.363.742 2.388 0 1.023-.245 1.82-.742 2.394-.495.573-1.19.858-2.083.858"/><path d="m91.6295 22.8444c-.122 0-.184-.061-.184-.184v-5.761c0-.122.062-.184.184-.184h.232c.129 0 .199.062.207.184l.061.706c.308-.342.611-.582.907-.726.298-.141.632-.213 1.006-.213.13 0 .235.005.317.012.122.008.182.075.182.196v.304c0 .034-.012.064-.037.091-.023.029-.057.044-.097.044-.065 0-.126-.003-.182-.006-.057-.005-.142-.007-.256-.007-.374 0-.705.069-.993.208-.289.138-.567.361-.835.669v4.483c0 .123-.061.184-.182.184z"/><path d="m95.8209 22.8444c-.122 0-.184-.061-.184-.184v-8.649c0-.123.062-.184.184-.184h.33c.121 0 .182.061.182.184v5.436l2.924-2.609c.08-.08.184-.123.305-.123h.439c.095 0 .147.038.147.109 0 .043-.046.103-.135.184l-2.949 2.608 3.192 2.949c.073.064.109.118.109.158 0 .08-.047.121-.146.121h-.523c-.099 0-.186-.036-.269-.109l-3.094-2.888v2.813c0 .123-.061.184-.182.184z"/></g></g></g></svg>