<svg height="105" viewBox="0 0 189 105" width="189" xmlns="http://www.w3.org/2000/svg" xmlns:xlink="http://www.w3.org/1999/xlink"><mask id="a" fill="#fff"><path d="m.66969897.927h17.82517863v24.0706606h-17.82517863z" fill="#fff" fill-rule="evenodd"/></mask><mask id="b" fill="#fff"><path d="m0 .35258622h18.5711v22.81071378h-18.5711z" fill="#fff" fill-rule="evenodd"/></mask><g fill="none" fill-rule="evenodd"><path d="m.5.5h188.024915v103.851986h-188.024915z" stroke="#e2e2e2"/><g transform="translate(35.4 38.851986)"><path d="m8.0858.9487c5.611-.341 10.063 3.304 10.39 8.945.372 6.42-4.741 12.996-11.426 14.7-2.311.582-4.477.516-6.358-.075-.136-2.533.357-5.174 1.442-7.017 1.77-3.006 4.449-2.75 5.982.571.576 1.249.908 2.754 1.006 4.306.535-.286 1.055-.605 1.552-.951-1.657-4.021-2.398-8.782 3.54-17.145-1.726-1.381-4.38-2.055-7.695-1.626.489-.574 1.011-1.145 1.567-1.708" fill="#000" mask="url(#a)" transform="translate(6 .0733)"/><path d="m12.7201 4.7573c-.481 1.012-.29 1.844.427 1.856.716.014 1.686-.797 2.166-1.809.481-1.011.291-1.843-.426-1.856-.716-.012-1.686.797-2.167 1.809m-.488-2.864c-5.018 6.153-7.15 14.144-6.85 21.27-2.965-1.185-5.135-4.043-5.361-7.664l-.002-.042c-.373-6.426 4.751-13.009 11.444-14.703 2.6-.659 5.056-.484 7.108.355-.428 1.216-1.141 2.605-1.848 3.655-1.483 2.202-3.61 3.591-4.753 3.101-1.141-.489-.866-2.671.618-4.874.342-.508.721-.974 1.113-1.383-.483.066-.973.16-1.469.285" fill="#d80015" mask="url(#b)" transform="translate(0 3.0733)"/><g fill="#000"><path d="m78.1552 18.378-.395 2.319c.384.322.763.456 1.295.456 1.653 0 2.887-2.374 2.887-4.494 0-.634-.16-1.693-1.232-1.693-1.161 0-2.165 1.34-2.555 3.412zm.51-4.673c.845-.996 1.988-1.563 3.194-1.563 2.213 0 3.642 1.676 3.642 4.269 0 1.897-.643 3.765-1.767 5.128-1.201 1.455-2.866 2.257-4.69 2.257-.82 0-1.48-.221-1.831-.426l-.684 3.622c-.011.048-.052.081-.099.081h-3.229c-.029 0-.058-.012-.078-.036-.019-.023-.027-.055-.02-.083l2.771-14.576c.01-.047.05-.081.099-.081l2.839.002c.029 0 .058.014.078.036.015.018.022.041.022.065 0 .006-.001.012-.002.018z"/><path d="m45.3119 19.1915c0 2.784 1.852 4.583 4.717 4.583 1.211 0 2.393-.222 3.159-.592.029-.015.05-.041.056-.073l.509-2.687c.008-.037-.007-.074-.038-.098-.031-.023-.07-.028-.105-.01-.984.484-1.755.681-2.661.681-.992 0-2.053-.567-2.053-2.162 0-1.913 1.355-3.891 3.621-3.891.682 0 1.251.134 1.739.408.029.015.062.016.092.003.028-.014.049-.041.056-.073l.499-2.615c.008-.048-.018-.094-.061-.112-.594-.244-1.447-.388-2.28-.388-4.133 0-7.25 3.02-7.25 7.026"/><path d="m67.7445 13.1998c-.91.706-1.39 1.685-1.39 2.831 0 1.194.795 2.197 2.365 2.981.955.468 1.311.827 1.311 1.323 0 .538-.497.885-1.266.885-1.026 0-2.428-.481-3.137-.925-.029-.019-.063-.021-.093-.008-.031.013-.053.039-.059.073l-.464 2.443c-.008.04.008.077.04.101.689.5 2.054.849 3.397.871 1.75.013 3.211-.474 4.115-1.371.683-.678 1.03-1.548 1.03-2.585 0-1.605-1.347-2.485-2.521-3.072-.876-.426-1.266-.786-1.266-1.165 0-.532.502-.863 1.312-.863.991 0 1.913.311 2.446.601.029.015.063.015.093.003.027-.014.049-.042.054-.073l.464-2.429c.007-.042-.014-.084-.051-.105-.49-.278-1.495-.574-2.85-.574-1.418 0-2.638.366-3.53 1.058"/><path d="m31.1195 14.1124c.116-.612.309-1.626.309-1.626.002-.007.002-.013.002-.02 0-.022-.008-.045-.023-.063-.018-.024-.047-.037-.078-.037h-2.838c-.048 0-.09.035-.099.082l-2.109 11.09c-.006.029.002.058.022.082.019.023.047.036.077.036h3.228c.048 0 .09-.034.097-.082l.787-4.208c.333-1.773 1.181-3.885 3.332-3.885.205 0 .381.027.491.049.026.006.053 0 .076-.015.021-.014.038-.037.042-.064l.627-3.16c.006-.026 0-.054-.013-.076-.016-.021-.04-.038-.067-.042-.178-.032-.421-.053-.619-.053-1.256 0-2.391.702-3.244 1.992"/><path d="m57.1498 8.5098c-.048 0-.09.035-.099.082l-2.818 14.817c-.004.029.002.06.022.083s.048.036.078.036h3.205c.049 0 .09-.034.099-.081 0 0 .977-5.143 1.066-5.614.197.433 2.542 5.636 2.542 5.636.016.037.051.059.091.059h3.471c.035 0 .067-.017.086-.045.01-.017.015-.036.015-.056 0-.014-.003-.028-.008-.041 0 0-2.649-5.746-2.703-5.862.086-.097 4.43-4.991 4.43-4.991.016-.018.025-.042.025-.065 0-.015-.002-.028-.009-.042-.015-.036-.052-.059-.091-.059h-3.517c-.028 0-.056.013-.075.034 0 0-3.77 4.348-4.128 4.762.11-.581 1.621-8.533 1.621-8.533.002-.007.002-.012.002-.019 0-.023-.008-.046-.022-.064-.019-.024-.048-.037-.077-.037z"/><path d="m112.2143 14.6963c-1.317 0-2.176 1.047-2.448 2.064 1.811.008 2.86-.191 3.292-.619.164-.162.243-.36.243-.604 0-.518-.417-.841-1.087-.841m-4.354-.365c1.208-1.412 2.898-2.189 4.758-2.189 2.339 0 3.911 1.365 3.911 3.395 0 .936-.307 1.711-.91 2.298-1.09 1.062-3.118 1.547-6.192 1.48.021.298.129.703.31.956.404.511 1.125.791 2.028.791 1.338 0 2.497-.324 3.759-1.052.035-.019.077-.017.109.005.03.023.047.063.039.101l-.513 2.702c-.005.031-.025.057-.052.071-1.571.799-3.409.885-4.125.885-3.085 0-4.853-1.719-4.853-4.718 0-1.717.63-3.44 1.731-4.725"/><path d="m96.9555 19.1915c0 2.784 1.851 4.583 4.716 4.583 1.213 0 2.393-.222 3.161-.594.028-.013.048-.039.055-.071l.509-2.687c.006-.037-.007-.076-.038-.098-.031-.023-.071-.028-.106-.01-.983.484-1.755.681-2.66.681-.993 0-2.053-.567-2.053-2.162 0-1.913 1.356-3.891 3.621-3.891.681 0 1.249.134 1.739.408.029.015.063.016.091.003.029-.014.05-.041.056-.073l.499-2.616c.009-.047-.016-.094-.06-.111-.594-.244-1.447-.388-2.28-.388-4.134 0-7.25 3.02-7.25 7.026"/><path d="m115.9276 22.3624c.069-.768.747-1.39 1.514-1.39.766 0 1.332.622 1.265 1.39-.071.768-.748 1.389-1.514 1.389-.768 0-1.334-.621-1.265-1.389zm1.514-1.195c.652 0 1.099.524 1.041 1.179-.06.666-.626 1.21-1.29 1.21-.653 0-1.1-.522-1.041-1.177.06-.668.624-1.212 1.29-1.212zm-.214.556c.036-.009.085-.017.162-.017.179 0 .306.077.306.245 0 .192-.161.354-.406.354h-.173zm-.467 1.42h.196l.129-.688h.174c.156 0 .236.089.248.306.012.185.027.35.038.382h.2c-.021-.062-.032-.215-.047-.435-.013-.162-.065-.28-.178-.316.203-.061.379-.234.379-.466 0-.108-.044-.199-.117-.26-.084-.076-.222-.114-.379-.114-.116 0-.247.011-.344.033z"/><path d="m37.6454 19.1675c.001.537.106 1.784 1.083 1.784 1.124 0 2.143-1.229 2.479-2.99l.192-.896c.065-.36.128-.75.106-1.19-.02-.727-.395-1.111-1.082-1.111-.419 0-.856.218-1.27.631-.861.861-1.509 2.483-1.508 3.772m2.572 4.241.251-1.264.062-.311c-.123.54-.675 1.114-.978 1.308-.65.417-1.372.633-2.137.633-2.23 0-3.23-1.976-3.231-3.935-.002-2.206.866-4.395 2.321-5.852 1.222-1.222 2.798-1.868 4.56-1.868 2.441 0 3.842 1.155 3.842 3.172.001.716-.119 1.42-.237 2.014l-1.172 6.141c-.01.047-.051.081-.1.081h-3.082c-.029 0-.058-.012-.077-.036-.015-.019-.022-.041-.022-.064 0-.007 0-.012 0-.019"/><path d="m89.288 19.1675c.001.537.107 1.784 1.084 1.784 1.124 0 2.142-1.229 2.479-2.99l.192-.896c.065-.36.126-.75.105-1.19-.021-.727-.395-1.111-1.082-1.111-.418 0-.856.218-1.269.631-.861.861-1.509 2.483-1.509 3.772m2.574 4.241.249-1.264.062-.311c-.123.54-.675 1.114-.977 1.308-.65.417-1.372.633-2.137.633-2.231 0-3.231-1.976-3.231-3.935-.002-2.206.865-4.395 2.32-5.852 1.223-1.222 2.799-1.868 4.56-1.868 2.441 0 3.842 1.155 3.844 3.172 0 .716-.12 1.42-.238 2.014l-1.173 6.141c-.009.047-.05.081-.099.081h-3.082c-.029 0-.059-.012-.078-.036-.014-.019-.022-.041-.022-.064 0-.007 0-.012.002-.019"/></g></g></g></svg>