<svg height="105" viewBox="0 0 189 105" width="189" xmlns="http://www.w3.org/2000/svg" xmlns:xlink="http://www.w3.org/1999/xlink"><mask id="a" fill="#fff"><path d="m.0002.085h29.8916576v29.9148h-29.8916576z" fill="#fff" fill-rule="evenodd"/></mask><mask id="b" fill="#fff"><path d="m.8862.0852h19.0056576v29.9148h-19.0056576z" fill="#fff" fill-rule="evenodd"/></mask><mask id="c" fill="#fff"><path d="m.8862.0852h19.0056576v29.9148h-19.0056576z" fill="#fff" fill-rule="evenodd"/></mask><mask id="d" fill="#fff"><path d="m.8862.0852h19.0056576v29.9148h-19.0056576z" fill="#fff" fill-rule="evenodd"/></mask><g fill="none" fill-rule="evenodd"><path d="m.5.5h188.024915v103.851986h-188.024915z" stroke="#e2e2e2"/><g transform="translate(43 37)"><path d="m14.1652 29.9998c-.013-.23-.037-.46-.037-.69-.002-4.837-.001-9.673-.001-14.51v-.734h-3.241c.132-.191.2-.309.287-.412 1.146-1.365 2.295-2.728 3.445-4.089.083-.099.173-.213.284-.263.396-.174.613.002.613.486.001 5.018 0 10.036 0 15.054v.698c.712-.11 1.379-.17 2.026-.317 5.697-1.293 9.725-6.43 9.637-12.268-.088-5.849-4.306-10.849-10.036-12.011-6.813-1.381-13.528 3.237-14.665 10.257-1.1 6.801 3.596 13.229 10.418 14.267.369.055.484.199.479.571-.021 1.32-.004 2.641-.002 3.961h-.198c-.123-.038-.244-.095-.37-.112-5.987-.807-11.101-5.517-12.381-11.428-.181-.833-.284-1.683-.423-2.525v-1.685c.066-.436.134-.873.198-1.31.905-6.161 5.503-11.111 11.587-12.452.784-.174 1.586-.27 2.38-.403h1.684c.778.132 1.563.229 2.333.4 6.338 1.406 11.034 6.743 11.644 13.219.739 7.837-4.842 14.96-12.618 16.104-.388.057-.774.128-1.161.192z" fill="#005789" mask="url(#a)" transform="translate(0 .9146)"/><path d="m4.1652.0852h1.684c.778.131 1.563.229 2.333.399 6.338 1.407 11.034 6.744 11.644 13.22.739 7.837-4.842 14.959-12.618 16.103-.388.057-.774.128-1.161.193h-1.882c-.013-.23-.037-.46-.037-.691-.002-4.836-.001-9.673-.001-14.509v-.734h-3.241c.132-.191.2-.31.287-.412 1.146-1.365 2.295-2.728 3.445-4.09.083-.098.173-.213.284-.262.396-.175.613.002.613.486.001 5.018 0 10.036 0 15.054v.697c.712-.109 1.379-.17 2.026-.317 5.697-1.292 9.725-6.429 9.637-12.267-.088-5.849-4.306-10.849-10.036-12.012-.999-.202-1.998-.276-2.976-.232" fill="#005789" mask="url(#b)" transform="translate(10 .9146)"/><path d="m4.1652.0852h1.684c.778.131 1.563.229 2.333.399 6.338 1.407 11.034 6.744 11.644 13.22.739 7.837-4.842 14.959-12.618 16.103-.388.057-.774.128-1.161.193h-1.882c-.013-.23-.037-.46-.037-.691-.002-4.836-.001-9.673-.001-14.509v-.734h-3.241c.132-.191.2-.31.287-.412 1.146-1.365 2.295-2.728 3.445-4.09.083-.098.173-.213.284-.262.396-.175.613.002.613.486.001 5.018 0 10.036 0 15.054v.697c.712-.109 1.379-.17 2.026-.317 5.697-1.292 9.725-6.429 9.637-12.267-.088-5.849-4.306-10.849-10.036-12.012-.999-.202-1.998-.276-2.976-.232" fill="#003a5e" mask="url(#c)" transform="translate(10 .9146)"/><path d="m4.1652.0852h1.684c.778.131 1.563.229 2.333.399 6.338 1.407 11.034 6.744 11.644 13.22.739 7.837-4.842 14.959-12.618 16.103-.388.057-.774.128-1.161.193h-1.882c-.013-.23-.037-.46-.037-.691-.002-4.836-.001-9.673-.001-14.509v-.734h-3.241c.132-.191.2-.31.287-.412 1.146-1.365 2.295-2.728 3.445-4.09.083-.098.173-.213.284-.262.396-.175.613.002.613.486.001 5.018 0 10.036 0 15.054v.697c.712-.109 1.379-.17 2.026-.317 5.697-1.292 9.725-6.429 9.637-12.267-.088-5.849-4.306-10.849-10.036-12.012-.999-.202-1.998-.276-2.976-.232" fill="#003a5e" mask="url(#d)" transform="translate(10 .9146)"/><path d="m56.7814 14.3421h8.061c-.044-2.168-1.925-3.826-4.188-3.734-2.161.088-3.972 1.816-3.873 3.734zm-.002.782c-.151 1.931 1.436 3.788 3.363 4.025 1.594.196 3.042-.163 4.361-1.146.09.076.186.159.287.237.092.071.187.135.394.283-.546.341-.96.673-1.429.879-1.423.623-2.916.711-4.408.327-2.212-.568-3.758-2.667-3.411-5.483.286-2.327 1.664-3.821 3.792-4.263 2.75-.573 5.271.956 5.864 3.554.346 1.526.3 1.587-1.213 1.587h-6.984z" fill="#005789"/><path d="m45.1408 14.9197c.006-3.065-2.426-4.948-5.341-4.136-1.66.463-2.665 1.842-2.819 3.87-.236 3.1 2.336 5.219 5.33 4.391 1.709-.471 2.826-2.1 2.83-4.125m-4.062 5.009c-2.913.009-4.907-2.003-4.917-4.961-.011-3.032 1.967-5.076 4.91-5.073 2.915.003 4.874 2.005 4.883 4.991.01 3.024-1.935 5.035-4.876 5.043" fill="#005789"/><path d="m47.0011 19.6859v-9.628h.801v1.191c.118-.059.183-.072.22-.112 1.252-1.372 2.817-1.54 4.446-.976 1.654.573 2.292 1.988 2.363 3.618.081 1.861.019 3.728.03 5.592.002.284-.104.371-.375.376-.301.005-.4-.109-.398-.407.01-1.699.017-3.399-.005-5.098-.006-.473-.059-.96-.186-1.414-.426-1.521-1.821-2.409-3.371-2.192-1.671.233-2.687 1.339-2.705 2.991-.018 1.815-.005 3.63-.006 5.445 0 .738-.001.739-.814.614" fill="#005789"/><g fill="#003a5e"><path d="m102.9259 14.9188c.001-2.064-1.085-3.655-2.817-4.126-2.679-.728-4.927.777-5.287 3.54-.418 3.205 2.135 5.513 5.215 4.713 1.76-.456 2.888-2.068 2.889-4.127zm.884.741c-.05.188-.107.374-.15.563-.511 2.246-2.222 3.631-4.611 3.729-2.511.102-4.541-1.462-5.01-3.861-.51-2.618.689-5.091 2.934-5.888 3.072-1.093 6.247.456 6.745 3.75.012.077.061.148.092.221z"/><path d="m85.8254 14.3455c-.162-1.476-.779-2.608-2.06-3.241-1.513-.748-3.046-.687-4.455.294-.998.696-1.486 1.704-1.584 2.947zm-8.078.793c-.024 2.349 1.793 4.081 4.158 4.057 1.326-.014 2.57-.443 3.559-1.242.184.173.373.35.681.641-.65.358-1.202.754-1.817.98-1.214.448-2.485.503-3.754.242-2.012-.415-3.495-2.084-3.689-4.137-.141-1.493.086-2.895 1.074-4.098 1.284-1.564 3.585-2.15 5.637-1.429 1.857.652 3.058 2.365 3.086 4.405.002.176-.02.353-.034.581z"/><path d="m75.8361 19.0091v.766h-.559c-2.31 0-4.62.001-6.929-.001-.214-.001-.43-.012-.641-.041-.906-.122-1.247-.709-.88-1.554.13-.299.32-.577.508-.846 2.364-3.377 4.734-6.751 7.102-10.127.123-.175.257-.346.354-.535.178-.349.052-.572-.341-.619-.163-.02-.329-.009-.494-.009-2.358 0-4.716 0-7.114 0v-.744c.153-.009.31-.025.469-.025 2.309-.002 4.619-.001 6.928-.001.034 0 .067-.001.1 0 .502.016 1.024.028 1.287.552.269.536.064 1.023-.255 1.477-2.491 3.551-4.981 7.102-7.472 10.653-.019.027-.048.051-.058.08-.08.251-.156.504-.234.756.241.073.482.207.724.209 2.293.015 4.586.009 6.88.009z"/><path d="m92.9494 10.158v.744c-.204-.017-.381-.02-.553-.047-1.527-.24-2.665.343-3.368 1.735-.434.86-.553 1.79-.563 2.735-.015 1.287-.004 2.573-.004 3.86v.559h-.763v-9.701h.744v1.671c.035.022.07.045.105.067.52-.685 1.097-1.29 1.925-1.582.822-.29 1.637-.294 2.477-.041"/><path d="m55.048 23.1595c0 1.068-.007 2.038.004 3.006.004.318-.074.48-.446.341v-4.047c.353-.129.57-.024.763.299.586.984 1.203 1.948 1.858 2.998v-3.307c.039-.031.078-.061.118-.091.108.101.308.201.31.304.022 1.283.014 2.565.014 3.828-.378.158-.559.016-.727-.263-.602-.999-1.224-1.986-1.894-3.068"/><path d="m71.4445 26.492c-.39.157-.567.004-.733-.272-.6-.998-1.22-1.982-1.889-3.062v2.419c0 .214-.011.429.002.643.019.34-.143.394-.447.288v-4.046c.349-.131.569-.034.762.291.587.984 1.204 1.949 1.849 2.985 0-.894-.001-1.722 0-2.55 0-.181-.022-.368.017-.541.02-.091.14-.186.236-.218.04-.014.193.126.194.198.013 1.297.009 2.594.009 3.865"/><path d="m88.2609 24.847c-.22-.665-.418-1.263-.647-1.955-.225.705-.417 1.309-.624 1.955zm.92 1.795c-.153-.129-.38-.229-.448-.393-.426-1.027-.415-1.045-1.516-.98-.157.009-.352.17-.445.315-.12.187-.167.427-.224.649-.077.304-.252.398-.61.271.111-.33.221-.663.335-.996.295-.871.62-1.734.875-2.618.133-.458.361-.575.816-.429.454 1.327.915 2.678 1.376 4.028-.053.051-.105.102-.159.153z"/><path d="m63.0353 23.0281-.097.016c-.186.588-.373 1.177-.564 1.783h1.255c-.21-.636-.403-1.217-.594-1.799m1.678 3.461c-.354.14-.52.068-.635-.267-.341-.988-.356-.969-1.424-.976-.323-.002-.483.105-.552.41-.043.192-.138.372-.18.563-.075.351-.276.41-.612.277.44-1.296.872-2.59 1.326-3.876.034-.096.212-.195.326-.197.137-.003.368.063.401.156.465 1.296.903 2.603 1.35 3.91"/><path d="m78.0451 22.8821c-.849-.192-1.647-.232-2.163.565-.437.676-.443 1.428-.005 2.104.536.827 1.369.701 2.341.518-.12.217-.157.405-.26.452-.979.446-2.331-.074-2.73-1.032-.499-1.197.004-2.61 1.133-2.972.465-.149 1-.109 1.502-.093.294.009.294.068.182.458"/><path d="m45.1984 24.2161c.527.052 1.023.099 1.518.159.009.001.001.151.001.28h-1.54v1.87c-.189.013-.314.021-.48.032v-4.122h2.088c.072.378.072.386-.268.394-.426.009-.852.002-1.319.002z"/><path d="m92.9884 26.5613v-4.127h.501v3.726c.52 0 .992-.013 1.463.008.107.005.211.124.315.19-.104.068-.207.191-.312.194-.64.018-1.28.009-1.967.009"/><path d="m50.9572 22.4027v4.126h-.473v-4.084c.141-.012.279-.024.473-.042"/><path d="m81.8478 22.4378h.424v4.093c-.136.008-.26.015-.424.025z"/></g></g></g></svg>