<svg height="105" viewBox="0 0 189 105" width="189" xmlns="http://www.w3.org/2000/svg" xmlns:xlink="http://www.w3.org/1999/xlink"><mask id="a" fill="#fff"><path d="m.7594.43439066h5.0796v9.75170934h-5.0796z" fill="#fff" fill-rule="evenodd"/></mask><mask id="b" fill="#fff"><path d="m.8181.082h5.75353864v14.6541h-5.75353864z" fill="#fff" fill-rule="evenodd"/></mask><mask id="c" fill="#fff"><path d="m0 15.9185h136.839v-14.918h-136.839z" fill="#fff" fill-rule="evenodd"/></mask><g fill="none" fill-rule="evenodd"><path d="m.5.5h188v103.851986h-188z" stroke="#e2e2e2"/><g fill="#000" transform="translate(26 44)"><path d="m81.2223 8.66c1.143-.102 2.206-.091 3.215-.315 1.134-.252 1.733-1.149 1.818-2.303.083-1.127-.135-2.144-1.248-2.669-1.206-.568-2.491-.449-3.785-.328zm-.043 1.352v5.088h-1.481v-13.656c1.826.101 3.61.056 5.341.336 1.831.297 2.791 1.672 2.91 3.627.114 1.888-.897 3.548-2.659 4.191-.665.243-1.4.327-2.111.4-.621.065-1.252.014-2 .014z"/><path d="m128.2164 9.3641c-.032-1.873-.898-2.825-2.442-2.801-1.478.022-2.685 1.296-2.645 2.801zm-5.16 1.332c-.245 2.526 2.143 4.678 6.002 2.511.262 1.265.176 1.431-.955 1.852-2.701 1.003-5.331.15-6.258-2.112-.703-1.715-.702-3.475.088-5.18.882-1.903 2.594-2.773 4.756-2.469 1.688.236 2.77 1.496 3.076 3.621.08.555.086 1.122.132 1.777z"/><path d="m94.4332 10.241c-1.112.207-2.236.371-3.337.634-.889.212-1.131.917-1.061 1.755.067.808.562 1.231 1.315 1.391 2.044.434 3.543-1.323 3.083-3.78m1.585 4.891h-1.419c-.023-.421-.043-.799-.057-1.057-.746.414-1.463.986-2.278 1.226-1.729.508-3.31-.373-3.743-1.917-.481-1.716.382-3.215 2.197-3.739.603-.174 1.236-.246 1.859-.347.62-.101 1.244-.18 1.853-.265.273-1.496-.517-2.57-1.937-2.438-1.042.096-2.055.5-3.073.766-.235-1.22-.194-1.392 1.141-1.731.916-.233 1.895-.356 2.839-.32 1.474.056 2.53 1.039 2.591 2.517.1 2.403.027 4.813.027 7.305"/><path d="m119.5968 15.1385h-1.485c0-1.104.012-2.175-.004-3.247-.016-1.055.02-2.119-.113-3.16-.192-1.508-.866-2.139-2.073-2.169-1.294-.03-2.434.798-2.666 2.102-.162.912-.146 1.859-.166 2.792-.025 1.2-.006 2.401-.006 3.659h-1.451v-9.578h1.416c.02.416.039.803.063 1.307.201-.161.365-.257.485-.393 1.116-1.268 2.524-1.502 4.034-.991 1.507.51 1.926 1.82 1.955 3.251.042 2.109.011 4.219.011 6.427"/><path d="m109.9019 13.8792c.115 1.302.006 1.436-1.171 1.534-1.627.136-2.702-.755-2.741-2.389-.05-2.043-.012-4.089-.012-6.224-.584-.027-1.081-.05-1.646-.077v-1.206c.508-.031 1.005-.06 1.628-.098 0-.378 0-.729.001-1.08.002-1.388.002-1.388 1.521-1.681v2.794h2.431v1.31h-2.384c0 2.077-.078 4.061.029 6.034.066 1.209.761 1.467 2.344 1.083"/><path d="m103.5938 5.4066v1.473c-2.055-.419-3.271.507-3.406 2.604-.06.93-.031 1.867-.035 2.801-.005.903-.001 1.805-.001 2.8h-1.545v-9.568h1.501c.028.507.053.972.092 1.674.783-1.461 1.776-2.178 3.394-1.784"/><path d="m5.8394 2.0061c-2.098-.468-3.241.225-3.475 2.154-.192 1.578-.128 3.188-.172 4.784-.011.391-.002.781-.002 1.242h-1.431v-9.579h1.395v1.773c.292-.423.407-.655.581-.828.337-.338.658-.784 1.075-.928.54-.187 1.212-.265 1.733-.098.216.069.192.892.296 1.48" mask="url(#a)" transform="translate(131 4.9185)"/><path d="m.0001 2.1473c.075-.03.102-.048.131-.051 1.861-.207 1.865-.208 2.603 1.471 1.382 3.142 2.759 6.286 4.171 9.505.383-.865.747-1.701 1.121-2.534 1.048-2.336 2.099-4.67 3.152-7.004.722-1.603.723-1.603 2.609-1.428v13.509h-1.461v-11.288c-.9 2.03-1.768 3.986-2.637 5.941-.708 1.597-1.402 3.199-2.138 4.783-.118.253-.416.579-.635.583-.217.004-.534-.315-.648-.565-1.566-3.445-3.105-6.904-4.767-10.617v11.175h-1.501z"/><path d="m42.7159 10.8094c-.005-1.935-.681-3.178-1.969-3.621-1.969-.677-3.802.35-4.271 2.392-.441 1.916.056 3.709 1.298 4.481 1.075.669 2.233.741 3.356.152 1.367-.717 1.562-2.033 1.586-3.404m1.587-.064c-.005 3.714-2.812 5.909-6.329 4.947-1.835-.501-2.961-1.985-3.22-4.244-.449-3.916 2.703-6.632 6.449-5.556 2.008.576 3.103 2.291 3.1 4.853"/><path d="m60.5943 10.8685c0-.301.023-.604-.004-.903-.136-1.461-.914-2.475-2.143-2.819-1.825-.509-3.462.356-3.999 2.112-.695 2.282.15 4.559 1.909 5.14.028.01.058.012.087.021 2.437.733 4.159-.735 4.15-3.551m-2.979-5.16c2.859-.002 4.607 1.883 4.613 4.973.005 3.196-1.862 5.194-4.852 5.193-2.89-.001-4.74-1.948-4.742-4.992-.004-3.214 1.882-5.172 4.981-5.174"/><path d="m3.9781 14.7361h-1.528v-8.386c-.587-.034-1.082-.063-1.632-.095v-1.226c.502-.026.998-.052 1.592-.082 0-.638-.022-1.234.005-1.829.072-1.636 1.221-2.851 2.819-3.007 1.245-.123 1.457.105 1.286 1.385-2.634-.343-2.677 1.028-2.494 3.47h2.146v1.316h-2.194z" mask="url(#b)" transform="translate(62 .9185)"/><path d="m51.1007 7.4998c-.705-.178-1.333-.41-1.978-.483-.945-.108-1.724.361-1.878 1.064-.199.903.329 1.408 1.066 1.765.487.235.988.444 1.468.695 1.481.774 2.011 1.73 1.746 3.109-.221 1.152-1.446 2.103-2.881 2.208-.449.033-.907.036-1.355-.005-1.553-.143-1.767-.405-1.668-2.021.583.218 1.136.504 1.723.622.512.102 1.11.141 1.582-.031.402-.146.912-.609.951-.976.046-.432-.253-1.044-.603-1.343-.512-.436-1.202-.664-1.818-.979-1.52-.781-2.078-1.786-1.759-3.169.3-1.298 1.505-2.194 3.025-2.24.301-.008.604-.012.904.01 1.432.103 1.611.323 1.475 1.774"/><path d="m27.5191 7.6092c-2.619-.899-3.966-.673-4.997.84-.976 1.431-.919 3.726.124 5.017 1.003 1.243 2.576 1.393 4.775.456.319 1.168.19 1.463-.902 1.742-1.899.485-3.717.324-5.062-1.244-1.528-1.784-1.566-3.882-.679-5.947.801-1.866 2.358-2.746 4.39-2.762.302-.002.605-.008.904.022 1.509.15 1.649.338 1.447 1.876"/><path d="m74.2301 14.3948c.133 1.259.02 1.402-1.051 1.468-1.844.113-2.777-.676-2.852-2.549-.067-1.655-.022-3.315-.027-4.973 0-.326 0-.653 0-1.066-.578-.037-1.075-.07-1.637-.107v-1.225h1.508c.434-1.033-.648-2.888 1.639-2.754v2.665h2.423v1.341h-2.372c0 2.104-.051 4.085.021 6.062.037 1.026.736 1.442 1.774 1.254.172-.031.343-.069.574-.116"/><path d="m29.4971 5.9437h1.479c.023.501.044.972.073 1.617.288-.385.459-.684.697-.914.276-.268.582-.597.928-.681.53-.128 1.178-.231 1.631-.025.241.11.177.891.256 1.409-2.27-.376-3.428.543-3.51 2.773-.067 1.801-.014 3.606-.014 5.483h-1.54z"/><path d="m16.792 15.6355h1.467v-9.664h-1.467z" mask="url(#c)"/><path d="m18.5699 2.3782c-.059.696-.411 1.036-1.059 1.021-.609-.014-.945-.345-.949-.964-.004-.626.379-.967.945-.995.624-.031.991.344 1.063.938" mask="url(#c)"/></g></g></svg>