<svg height="50" viewBox="0 0 194 50" width="194" xmlns="http://www.w3.org/2000/svg" xmlns:xlink="http://www.w3.org/1999/xlink"><mask id="a" fill="#fff"><path d="m0 49.9222222h191.975406v-49.9222222h-191.975406z" fill="#fff" fill-rule="evenodd"/></mask><g fill="none" fill-rule="evenodd" transform="translate(1)"><g fill="#fefefe"><path d="m107.166804 25.2181301c-.472051-.552168-1.062046-.8281843-1.769987-.8281843-.653588 0-1.207304.2737127-1.661147.8214092-.453842.547561-.680764 1.4051491-.680764 2.5728997 0 1.2672087.217818 2.1655827.653588 2.695122.435635.5294038.975627.7941734 1.620247.7941734.735116 0 1.34332-.2760162 1.824339-.8281842.481019-.5520326.721665-1.398374.721665-2.5388889 0-1.2401084-.23589-2.1361789-.707941-2.6883469zm.667041 10.0788618v-1.6200542c-.55358.5701897-1.182166 1.0001355-1.885758 1.2897019-.703457.2897019-1.481784.4345528-2.334981.4345528-1.760883 0-3.217801-.6314363-4.3704801-1.8940379-1.1528153-1.2627372-1.7292229-3.0933605-1.7292229-5.4920054 0-2.1724933.5287133-3.9963415 1.586276-5.4716803 1.057427-1.4754742 2.552798-2.2131436 4.486115-2.2131436.980382 0 1.874479.2126016 2.682429.6380759.598963.3168022 1.257171.9233062 1.97408 1.8193767v-2.1317073h5.187533v14.6409214z"/><path d="m42.6722378 35.0753388h5.5415032v-14.4192412h-5.5415032z" mask="url(#a)"/><path d="m51.7946021 20.656084h5.1738089v2.1044716c.7455797-.8779133 1.4978175-1.5025746 2.2568493-1.8735773.7590318-.3711382 1.6747346-.5566395 2.7468365-.5566395 1.1549894 0 2.0685181.2036585 2.7412654.6108401.6727474.407317 1.2230658 1.0138211 1.6497325 1.8193767.8703185-.941328 1.6633206-1.5817074 2.379414-1.9210028.7158217-.3395664 1.5997282-.509214 2.651448-.509214 1.5498599 0 2.7606964.459214 3.630879 1.3780487.8690955.9186992 1.3047303 2.3556911 1.3047303 4.3108401v9.0560976h-5.5549554v-8.2143631c0-.6517616-.1271847-1.1359079-.3801953-1.4527101-.3710913-.4979674-.8315924-.7467479-1.3842208-.7467479-.6512782 0-1.1755075.2353658-1.573775.7060975-.3981316.4705962-.5966539 1.2262873-.5966539 2.2673442v7.4403794h-5.5552272v-7.9428184c0-.6336044-.0362802-1.0635502-.1088407-1.2898374-.1191678-.3620596-.3233971-.6539296-.6149979-.8757453-.2916009-.2216802-.6330701-.3326558-1.0245435-.3326558-.6376901 0-1.1619194.2399729-1.571465.7196477-.4095457.4796748-.6149979 1.2672087-.6149979 2.3624661v7.3589431h-5.5550913z" mask="url(#a)"/><path d="m85.220552 27.9064634c0 1.1405149.2405096 1.9868564.7216646 2.5388889.4810191.552168 1.089087.8283198 1.8243397.8283198.644484 0 1.1846114-.2647697 1.6202462-.794309.4357707-.5295393.6535882-1.4279132.6535882-2.6949864 0-1.1678862-.2269215-2.0254743-.6807644-2.5730352-.4538429-.5476965-1.0075584-.8214093-1.6611465-.8214093-.7080764 0-1.2979363.2760163-1.7699872.8281843-.472051.5521681-.7079406 1.448374-.7079406 2.6883469zm-5.5552272 12.6542006v-19.9046071h5.1875329v2.1318428c.7170446-.8962059 1.3752527-1.50271 1.9742166-1.8195122.8079491-.4254742 1.7020467-.6380758 2.682293-.6380758 1.9334522 0 3.4288238.7376693 4.4862505 2.2131436 1.0574268 1.4754742 1.586276 3.2993225 1.586276 5.4716802 0 2.398645-.5764076 4.2294038-1.7292229 5.4920054-1.1526794 1.2626016-2.6095966 1.8941735-4.3706157 1.8941735-.8531975 0-1.6315244-.1449865-2.3349809-.4346884-.7034565-.2895664-1.3320425-.7195122-1.8856221-1.2897019v6.8837399z" mask="url(#a)"/><path d="m127.619044 29.4271409 5.269061.5974255c-.290378 1.0951219-.766913 2.0433604-1.429469 2.8443089-.662692.801084-1.509231 1.4234418-2.539346 1.8670732-1.030251.4434959-2.339601.6653117-3.928051.6653117-1.534098 0-2.811516-.142683-3.832798-.4277778-1.021147-.2850949-1.89921-.7444445-2.634599-1.3825203-.735253-.6382114-1.311524-1.3872629-1.729087-2.244851-.417563-.8600271-.626412-2.000542-.626412-3.4192412 0-1.4822493.254234-2.7177507.762565-3.704336.372178-.7219512.880374-1.3714092 1.524858-1.9460705.64462-.5749322 1.307176-1.000271 1.987804-1.2808943 1.080255-.4434959 2.464476-.6653116 4.152799-.6653116 2.359983 0 4.159456.4210027 5.39842 1.2627371 1.239236.8417344 2.108195 2.0727642 2.607422 3.6929539l-5.214709.6925474c-.163329-.6155826-.460637-1.0794038-.891787-1.3917344-.431015-.3121951-1.009733-.4684282-1.736017-.4684282-.916654 0-1.658701.3281843-2.22614.9821139-.567304.656233-.850888 1.6474254-.850888 2.9757452 0 1.1834688.28141 2.0818428.844093 2.6974255.56282.6131436 1.279865.9208672 2.15127.9208672.726149 0 1.336527-.1855014 1.83127-.5566396.494743-.3710027.864611-.9413279 1.109741-1.7107046" mask="url(#a)"/><path d="m131.396375 16.4200678v4.101897h6.290344v14.5533875h2.976068v-18.6552845z" mask="url(#a)"/></g><path d="m160.574329 26.1149051c-.457104-1.7440379-1.55978-2.6159891-3.308705-2.6159891-.398132 0-.772077.0605691-1.122106.1814363-.349758.1214092-.667992.295935-.954565.5235772-.286845.2277778-.531975.5010841-.735932.8211383-.204094.3196476-.359813.6827913-.46648 1.0898373zm3.366318 2.6739838h-10.172739c.087508 1.1628726.466616 2.0883469 1.136646 2.7762873.670709.6781842 1.530429 1.0173441 2.579702 1.0173441.816238 0 1.491431-.1936314 2.025988-.5814363.524501-.3873984 1.122242-1.104607 1.792679-2.1509485l2.769121 1.5406504c-.427618.7265583-.879558 1.3493225-1.35555 1.8673442-.475991.5184282-.986089.9445799-1.530021 1.2791328-.544611.3341463-1.132025.5789973-1.763873.7338753-.631711.1550136-1.316416.2323848-2.05493.2323848-2.118114 0-3.818259-.6780487-5.101112-2.0346883-1.28231-1.3661247-1.923533-3.1777778-1.923533-5.4355014 0-2.2380758.621656-4.0498645 1.865512-5.4355013 1.253231-1.3663957 2.914785-2.049187 4.984526-2.049187 2.088765 0 3.740399.6635501 4.955176 1.9909214 1.204586 1.3178862 1.807355 3.1444444 1.807355 5.4794038z" fill="#31c0e3" mask="url(#a)"/><path d="m19.3240594-.00006775-15.56667511 8.96233062v5.55867213l15.56667511-8.96233066.0021741-.00271003v-5.55311653z" fill="#d0d2d3" mask="url(#a)"/><path d="m178.029873 21.5515312v4.3452574c-.748297-.9104336-1.41887-1.5353658-2.011448-1.8746612-.582658-.3490515-1.26777-.5231708-2.054929-.5231708-1.234073 0-2.259024.4313009-3.075262 1.2933605-.815966.8627371-1.224152 1.9426829-1.224152 3.2410569 0 1.3276423.393511 2.4177507 1.18067 3.2700542.796535.85271 1.812111 1.2791328 3.046183 1.2791328.786752 0 1.48124-.1695122 2.084009-.5086721.583065-.3294038 1.26777-.9688347 2.054929-1.9185637v4.3165312c-1.331363.6878048-2.662454 1.0317073-3.993409 1.0317073-2.195839 0-4.032136-.7070461-5.509164-2.1219512-1.477027-1.4239838-2.214998-3.1922765-2.214998-5.3044716s.74789-3.8952574 2.244349-5.3485095c1.495915-1.4533875 3.332348-2.1799458 5.508891-2.1799458 1.399168 0 2.720476.3341464 3.964331 1.0028456" fill="#31c0e3" mask="url(#a)"/><path d="m34.8905444 8.96392954v5.55962056l-15.5643652-8.96761514v-5.55325203z" fill="#fefefe" mask="url(#a)"/><path d="m180.521783 16.4200678h3.075262v6.5304878c1.093707-.9811654 2.300603-1.4718158 3.622046-1.4718158 1.503661 0 2.706208.4861789 3.608595 1.4584011.765146.8449865 1.147787 2.194309 1.147787 4.047832v8.1369919h-3.075397v-7.850813c0-1.0630082-.188874-1.8330624-.566896-2.3101626-.378293-.4769648-.986632-.7153117-1.824611-.7153117-1.075499 0-1.831813.3315718-2.269079.994851-.428297.6726287-.642445 1.8262872-.642445 3.4619241v6.4195122h-3.075262z" fill="#31c0e3" mask="url(#a)"/><path d="m142.986476 16.4200678v18.6552845h3.191712v-14.5533875h6.290344v-4.101897z" fill="#31c0e3" mask="url(#a)"/><path d="m36.6349588 37.6379404-17.3109809 9.9665311-17.31111675-9.9665311v-19.9331979l17.31111675-9.96666662 17.3109809 9.96666662z" fill="#31c0e3" mask="url(#a)"/><path d="m38.2992442 22.6822493v-5.9356368l-18.9752527-10.92493228-18.97538853 10.92493228v21.8493225l18.97538853 10.9249322 18.9752527-10.9249322zm-18.9752527 27.2399729-19.32392356-11.1252032v-22.251355l.08709979-.05 19.23682377-11.0753388 19.3239236 11.1253388v22.251355l-.0870998.0498645z" fill="#31c0e3" mask="url(#a)"/><path d="m34.8929223 18.9034282v17.9245257l-.027448.0170732-2.5556518 1.4710027h-.003397l-2.1405351 1.2348239-5.1762547 2.9794038-5.6635244 3.2600271-5.6976306-3.2804879-5.16946074-2.9760162-2.14746497-1.2383469-2.5521189-1.4674797v-17.9245257l.42191083-.2428184 1.98957113-1.145935 2.83692569-1.6317073 10.31826756-5.94186994 10.3458513 5.95555554 2.8094777 1.6180217 2.0170191 1.1630081z" fill="#231f20" mask="url(#a)"/><path d="m34.8908025 22.6290515v8.4252032l-15.5187091-8.9349593-15.61464117 8.9863144v-8.4219513l15.61464117-8.9894309z" fill="#fefefe" mask="url(#a)"/><path d="m32.3044144 38.1214634-2.140535 1.2348239-5.1763907 2.9795393-5.6976305-3.2804878-5.6635244 3.2598916-5.16946076-2.9760163-2.14732909-1.2382114 12.98031425-7.4708672z" fill="#fefefe" mask="url(#a)"/><path d="m19.3261792 39.0780488v6.5203252l-5.70062-3.2830623 5.6610786-3.2570461z" fill="#231f20" mask="url(#a)"/><path d="m19.3261792 22.1492412v8.500542l-.0395414-.0196477-12.97814014 7.4676152-2.55334182-1.4672087v-5.5266938z" fill="#231f20" mask="url(#a)"/><path d="m19.3261792 9.74689702v3.97398378l-15.57102336 8.9612466v-3.9739838l.42231847-.2433604 1.99256051-1.144851 2.83706157-1.6317073z" fill="#231f20" mask="url(#a)"/><path d="m19.3261792 13.7208943v8.4283198l-15.57102336 8.954607v-8.4216802z" fill="#d0d2d3" mask="url(#a)"/><path d="m19.3261792 30.6498374v8.4281843l-.0395414-.0196477-5.6610786 3.2569106-5.16619954-2.9739838-2.150862-1.2434959 12.97814014-7.4677507z" fill="#d0d2d3" mask="url(#a)"/></g></svg>