<svg height="105" viewBox="0 0 189 105" width="189" xmlns="http://www.w3.org/2000/svg" xmlns:xlink="http://www.w3.org/1999/xlink"><mask id="a" fill="#fff"><path d="m0 .9358h124.677v24.0642h-124.677z" fill="#fff" fill-rule="evenodd"/></mask><g fill="none" fill-rule="evenodd"><path d="m.5.5h188.024915v103.851986h-188.024915z" stroke="#e2e2e2"/><g transform="translate(33 39)"><path d="m7.0103 12.6498c1.538-1.589 3.065-3.001 3.065-3.001l-1.123-1.095s-1.659 1.507-3.545 3.072c-1.609 1.336-3.397 2.677-4.311 3.584-1.984 1.965-1.02 4.548.863 6.143 1.337 1.133 2.261 2.19 3.699 3.416.584.499 1.628.104 2.151-.362.522-.466 1.66-1.824 1.66-1.824l-.821-1.084s-.805.644-1.121.859c-.458.315-1.163.425-1.747-.29-.579-.709-2.13-1.917-2.613-2.51-.819-1.009-.794-2.15.204-3.496.482-.65 2.203-1.926 3.639-3.412zm14.658-7.77c-1.337-1.133-2.262-2.188-3.699-3.415-.585-.5-1.629-.103-2.151.362s-1.662 1.824-1.662 1.824l.824 1.084s.804-.644 1.119-.859c.459-.315 1.163-.425 1.747.289.58.71 2.131 1.918 2.613 2.511.82 1.008.795 2.149-.204 3.495-.481.651-2.203 1.927-3.638 3.413-1.539 1.589-3.065 3.001-3.065 3.001l1.123 1.095s1.658-1.507 3.544-3.072c1.609-1.336 3.397-2.678 4.312-3.583 1.984-1.967 1.019-4.549-.863-6.145zm43.171 8.089c-.478.832-1.309 1.372-2.161 1.372-1.06 0-1.643-.665-1.643-1.808 0-.645.147-1.019.541-1.476.416-.478 1.289-.748 2.723-.748.146 0 .312.021.603.042zm1.912-.872c0-1.518.083-3.118.083-3.846 0-1.018-.041-1.372-.207-1.829-.395-1.101-1.496-1.662-3.013-1.662-2.017 0-3.347.789-4.366 1.372l.873 1.35c.853-.644 2.1-1.184 3.202-1.184 1.455 0 1.62.831 1.62 2.058v.686c-.27-.021-.478-.021-.727-.021-3.367 0-5.3 1.288-5.3 3.678 0 1.995 1.289 3.055 3.367 3.055 1.808 0 2.681-1.039 2.952-1.372.248.749.748 1.269 1.392 1.518l.977-1.289c-.811-.499-.853-1.08-.853-2.514zm42.795-2.806c0-1.891.727-3.077 2.181-3.077.666 0 1.165.312 1.497.728.416.52.645 1.351.645 2.349zm2.204-4.531c-1.289 0-2.308.457-3.14 1.434-.892 1.06-1.247 2.224-1.247 4.011 0 3.366 1.767 5.466 4.656 5.466 1.371 0 2.598-.436 3.617-1.33l-.728-1.122c-.748.665-1.58.997-2.556.997-.998 0-1.85-.394-2.39-1.225-.313-.5-.437-1.185-.437-2.037v-.25h6.339v-.333c-.02-2.39-.353-3.554-1.269-4.489-.726-.748-1.662-1.122-2.845-1.122zm-37.122 9.373c-1.08 0-2.057-.436-2.66-1.205-.644-.831-1.06-2.619-1.06-4.905 0-1.788.228-3.035.748-4.012.5-.914 1.6-1.537 2.848-1.537 1.745 0 2.619 1.059 2.992 1.953.395.957.604 2.245.604 4.137 0 2.14-.312 3.407-.935 4.301-.583.852-1.415 1.268-2.537 1.268zm4.469 1.787c-.478-.269-1.164-.706-1.787-.935.436-.27.706-.52.997-.811 1.329-1.33 2.037-3.117 2.037-5.756 0-2.245-.479-3.95-1.393-5.258-.893-1.268-2.369-2.224-4.509-2.224-1.06 0-2.037.228-2.848.706-1.87 1.102-2.93 3.513-2.93 6.631 0 2.286.54 4.177 1.663 5.507.935 1.122 2.223 1.891 4.115 1.891 1.392.312 2.119.749 3.012 1.33.625.395 1.706 1.06 2.661 1.06.686 0 1.06-.124 1.206-.207l.562-1.414c-.188.043-.541.083-.895.083-.789 0-1.434-.332-1.891-.603zm10.848-11.119-1.892.375v7.481c-.435.914-1.432 1.643-2.368 1.643-.458 0-.936-.208-1.206-.458-.373-.354-.478-.769-.478-1.828v-7.213l-1.891.375v7.274c0 .748.063 1.33.251 1.745.436.956 1.474 1.559 2.805 1.559 1.288 0 2.306-.478 3.138-1.496.187.768.457 1.164.977 1.559l1.31-1.04c-.416-.353-.646-1.101-.646-2.161zm16.502 1.601.52-1.352h-2.536c0-1.059.104-2.369.188-3.117l-1.976.457c-.102.79-.124 1.85-.124 2.66h-1.247v1.352h1.247v6.712c0 1.517.333 1.726.77 2.121.332.311 1.08.519 1.765.519.686 0 1.31-.146 1.892-.437l-.227-1.163c-.334.146-.625.208-.937.208-1.038 0-1.351-.395-1.351-1.684v-6.276zm-10.162 7.898c-1.602 0-2.411-1.06-2.411-4.261 0-2.639.685-3.825 2.328-3.825 1.454 0 2.39.978 2.39 4.22 0 2.743-.894 3.866-2.307 3.866zm-.105-9.54c-2.744 0-4.467 2.119-4.467 5.487 0 3.388 1.723 5.507 4.509 5.507 2.764 0 4.531-2.099 4.531-5.403 0-3.138-1.496-5.591-4.573-5.591zm25.794 4.593-1.351-.311c-1.102-.25-1.475-.666-1.475-1.414 0-.935.706-1.558 1.809-1.558.831 0 1.599.269 2.555.747l.645-1.35c-.853-.5-2.017-.853-3.283-.853-2.245 0-3.763 1.33-3.763 3.243 0 1.538.894 2.556 2.535 2.888l1.268.25c1.206.229 1.746.748 1.746 1.621 0 1.019-.79 1.684-1.933 1.684-1.164 0-2.348-.478-3.345-1.04l-.686 1.393c1.204.706 2.618 1.101 3.885 1.101 2.432 0 4.096-1.413 4.096-3.492 0-1.371-.791-2.472-2.703-2.909zm-83.157-8.209-2.494 8.895c-.271.956-.437 1.891-.499 2.244h-.042c-.042-.312-.207-1.184-.519-2.348l-2.411-8.791h-2.806l-1.288 14.319h1.953l.727-9.477c.062-.748.125-2.119.146-2.619h.042c.083.374.332 1.517.644 2.619l2.619 9.477h1.725l2.847-9.934c.229-.769.437-1.725.52-2.141h.041c.021.416.042 1.559.104 2.328l.748 9.747h1.996l-1.226-14.319zm7.464 8.147c0-1.891.727-3.077 2.182-3.077.665 0 1.163.312 1.496.728.415.52.645 1.351.645 2.349zm2.203-4.531c-1.289 0-2.307.457-3.139 1.434-.894 1.06-1.247 2.224-1.247 4.011 0 3.366 1.767 5.466 4.656 5.466 1.372 0 2.598-.436 3.616-1.33l-.727-1.122c-.749.665-1.58.997-2.557.997-.997 0-1.849-.394-2.389-1.225-.312-.5-.437-1.185-.437-2.037v-.25h6.338v-.333c-.02-2.39-.353-3.554-1.267-4.489-.727-.748-1.663-1.122-2.847-1.122zm9.705 1.642.52-1.352h-2.536c0-1.059.104-2.369.187-3.117l-1.974.457c-.104.79-.126 1.85-.126 2.66h-1.246v1.352h1.246v6.712c0 1.517.333 1.726.77 2.121.333.311 1.081.519 1.767.519s1.309-.146 1.891-.437l-.229-1.163c-.332.146-.623.208-.935.208-1.039 0-1.351-.395-1.351-1.684v-6.276z" fill="#708bb7" mask="url(#a)" transform="translate(0 .0647)"/><path d="m96.1642 22.8956.457-1.348c.089-.284.166-.575.229-.844h.021c.068.269.138.546.234.851l.463 1.341zm.353-2.725-1.584 4.662h.622l.485-1.466h1.653l.498 1.466h.643l-1.591-4.662zm-11.85 2.352c-.146.581-.277 1.1-.373 1.611h-.014c-.07-.49-.195-1.037-.326-1.597l-.567-2.366h-.629l-.623 2.352c-.159.602-.304 1.155-.381 1.618h-.013c-.083-.449-.208-1.023-.347-1.611l-.553-2.359h-.636l1.183 4.662h.63l.663-2.427c.173-.602.284-1.052.359-1.523h.015c.062.471.159.928.305 1.529l.587 2.421h.63l1.321-4.662h-.615zm-17.488-1.84h1.418v4.15h.609v-4.15h1.425v-.512h-3.452zm55.065 3.646v-1.682h1.806v-.498h-1.806v-1.473h1.916v-.505h-2.524v4.662h2.628v-.504zm-12.307-1.972h-.615v-1.695c.104-.028.304-.056.595-.056.636 0 1.072.264 1.072.866 0 .532-.408.885-1.052.885zm.783.256v-.022c.483-.165.878-.573.878-1.182 0-.366-.139-.684-.368-.885-.29-.263-.712-.388-1.355-.388-.408 0-.852.042-1.155.105v4.592h.602v-2.02h.567c.546.021.802.264.941.907.125.581.228.975.305 1.113h.622c-.091-.18-.2-.629-.353-1.28-.118-.484-.333-.816-.684-.94zm-67.691 1.805h-.007c-.947 0-1.487-.906-1.487-1.888 0-1.01.498-1.944 1.501-1.944s1.487.969 1.487 1.895c0 1.059-.54 1.937-1.494 1.937zm.028-4.323c-1.246 0-2.159.968-2.159 2.448 0 1.412.858 2.367 2.097 2.367h.006c1.183 0 2.159-.858 2.159-2.456 0-1.384-.824-2.359-2.103-2.359zm12.078 4.738h.609v-2.109h1.757v-.499h-1.757v-1.549h1.902v-.505h-2.511zm-25.174-2.642c-.643-.249-.926-.463-.926-.893 0-.318.241-.698.878-.698.422 0 .733.131.878.221l.166-.498c-.2-.111-.553-.222-1.023-.222-.906 0-1.508.54-1.508 1.267 0 .65.47 1.051 1.231 1.314.63.235.879.491.879.927 0 .471-.36.788-.976.788-.415 0-.802-.131-1.072-.297l-.159.498c.249.167.74.304 1.189.304 1.101 0 1.626-.629 1.626-1.341 0-.686-.394-1.059-1.183-1.37zm-20.518-17.178c.651.481 1.927 2.202 3.411 3.638 1.59 1.538 3.003 3.065 3.003 3.065l1.094-1.123s-1.506-1.659-3.072-3.544c-1.336-1.611-2.677-3.399-3.584-4.313-1.965-1.983-4.549-1.019-6.144.864-1.132 1.338-2.188 2.261-3.414 3.699-.5.584-.104 1.628.362 2.151.464.522 1.823 1.66 1.823 1.66l1.085-.822s-.645-.804-.86-1.119c-.315-.459-.425-1.164.289-1.748.71-.579 1.919-2.13 2.512-2.613 1.008-.82 2.149-.794 3.495.205zm11.443 10.541-1.084.824s.645.805.86 1.12c.314.459.424 1.163-.29 1.746-.709.58-1.918 2.131-2.511 2.614-1.008.82-2.15.793-3.496-.205-.65-.481-1.926-2.202-3.411-3.638-1.59-1.539-3.002-3.064-3.002-3.064l-1.094 1.123s1.506 1.657 3.072 3.544c1.336 1.61 2.677 3.398 3.583 4.311 1.966 1.985 4.548 1.019 6.144-.862 1.132-1.338 2.189-2.262 3.416-3.699.498-.585.102-1.63-.363-2.151-.465-.523-1.824-1.663-1.824-1.663z" fill="#9dadce"/></g></g></svg>