<svg enable-background="new 0 0 512 512" viewBox="0 0 512 512" xmlns="http://www.w3.org/2000/svg"><g fill="#a30000"><path d="m415.2 91.9-159.2-91.9-159.2 91.9v57l159.2-91.9 159.2 92z"/><path d="m433 386-177 102.2-177-102.2v-204.4l177-102.2 177 102.2z"/><path d="m256 512-197.6-114.1v-228.2l.9-.5 196.7-113.6 197.6 114.1v228.2l-.9.5zm194.1-279.4v-60.9l-194.1-112-194.1 112v224.1l194.1 112 194.1-112z"/></g><path d="m415.2 191.9v183.8l-.3.2-26.1 15.1-21.9 12.6-53 30.6-57.9 33.4-58.3-33.6-52.8-30.5-22-12.7-26.1-15.1v-183.8l4.3-2.5 20.4-11.8 29-16.7 105.5-60.9 105.8 61 28.7 16.6 20.7 12z" fill="#fff"/><path d="m250.2 340.1c0-4.8 0-9.3 0-14h98.3c0-23.5 0-46.8 0-70.4-60.8 0-121.7 0-182.8 0-.1-.8-.1-1.5-.1-2.1 0-13.1 0-26.3 0-39.4 0-9 6-14.9 15.1-14.9h166.8c8 0 13.7 4.3 15.1 11.6.2 1 .2 2 .2 3.1v110.7c0 9.7-5.7 15.5-15.4 15.5-31.7 0-63.4 0-95 0-.7-.1-1.3-.1-2.2-.1zm98.4-126.6c-56.4 0-112.6 0-168.7 0v13.8h168.7c0-4.6 0-9.1 0-13.8z" fill="#a30000"/><path d="m187.1 269.7c-27.4-.1-49.6 21.8-49.7 49s21.9 49.5 48.9 49.6c27.5.1 49.6-21.8 49.6-49.3.2-27-21.8-49.2-48.8-49.3zm23.7 55.1c0 .4-.2.8-.4 1-.3.3-.6.4-1 .4h-15.4v15.4c0 .8-.6 1.5-1.5 1.5h-11.5c-.4 0-.8-.2-1-.4-.3-.3-.4-.6-.4-1v-15.4h-15.4c-.4 0-.8-.2-1-.4-.3-.3-.4-.6-.4-1v-11.6c0-.8.6-1.5 1.5-1.5h15.4v-15.4c0-.4.2-.8.4-1 .3-.3.6-.4 1-.4h11.6c.8 0 1.5.6 1.5 1.5v15.4h15.4c.8 0 1.5.6 1.5 1.5v11.4z" fill="#a30000"/></svg>